<?xml version="1.0" standalone="no"?>
<!DOCTYPE svg PUBLIC "-//W3C//DTD SVG 1.1//EN" "http://www.w3.org/Graphics/SVG/1.1/DTD/svg11.dtd" >
<svg xmlns="http://www.w3.org/2000/svg" xmlns:xlink="http://www.w3.org/1999/xlink" version="1.1">
<metadata></metadata>
<defs>
<font id="carmina_md_btmedium" horiz-adv-x="1024" >
<font-face units-per-em="2048" ascent="1638" descent="-410" />
<missing-glyph horiz-adv-x="612" />
<glyph horiz-adv-x="0" />
<glyph unicode="&#xd;" horiz-adv-x="612" />
<glyph unicode=" "  horiz-adv-x="612" />
<glyph unicode="&#x09;" horiz-adv-x="612" />
<glyph unicode="&#xa0;" horiz-adv-x="612" />
<glyph unicode="!" horiz-adv-x="653" d="M219 1296l236 43q-21 -192 -35 -428t-23 -544l-82 -35q-10 262 -34 500t-62 464zM244 106q0 50 33 81.5t85 31.5q49 0 81 -32t32 -81t-32 -79.5t-85 -30.5q-50 0 -82 31t-32 79z" />
<glyph unicode="&#x22;" horiz-adv-x="686" d="M86 1360q0 48 24 75t66 27q44 0 67 -27.5t23 -78.5q0 -16 -0.5 -23.5t-1.5 -14.5l-69 -458h-35l-70 459q-2 17 -3 26t-1 15zM420 1356q0 51 22.5 78.5t65.5 27.5q42 0 66 -27t24 -75q0 -16 -0.5 -24.5t-1.5 -16.5l-70 -459h-34l-70 459q-1 7 -1.5 14.5t-0.5 22.5z" />
<glyph unicode="#" horiz-adv-x="1575" d="M88 449l51 139h312l98 276h-336l51 140h334l162 454h155l-161 -454h276l162 454h156l-162 -454h301l-49 -140h-301l-97 -276h320l-49 -139h-320l-162 -453h-155l162 453h-279l-162 -453h-153l159 453h-313zM604 588h283l96 276h-281z" />
<glyph unicode="$" horiz-adv-x="1223" d="M119 -18q22 81 38 167.5t25 179.5l47 -7v-21q0 -127 76.5 -183.5t253.5 -59.5v581q-189 34 -281 117t-92 221q0 147 98 244.5t275 128.5v172h55l1 -166q7 1 16.5 1.5t27.5 0.5q49 0 110 -7t136 -22l23 29l45 -10q-21 -76 -38 -155t-30 -161h-49q0 139 -52.5 195 t-189.5 63v-467q220 -42 319 -130.5t99 -239.5q0 -154 -109.5 -275.5t-308.5 -187.5v-191h-55v180q-11 -1 -23.5 -1.5t-37.5 -0.5q-66 0 -141.5 7.5t-174.5 23.5l-22 -28zM354 1081q0 -91 53.5 -154t151.5 -87v448q-92 -2 -148.5 -59t-56.5 -148zM614 63q112 19 172 94 t60 195q0 105 -56.5 172t-175.5 103v-564z" />
<glyph unicode="%" horiz-adv-x="1520" d="M94 954q0 195 102.5 301.5t288.5 106.5q117 0 178.5 -77.5t61.5 -223.5q0 -206 -97.5 -328.5t-258.5 -122.5q-132 0 -203.5 90t-71.5 254zM242 -82l989 1546l47 -32l-987 -1543zM248 1020q0 -168 43 -259t123 -91t120.5 77.5t40.5 231.5q0 155 -43.5 241.5t-121.5 86.5 q-75 0 -118.5 -76.5t-43.5 -210.5zM823 315q0 200 102 307t292 107q115 0 176 -77t61 -224q0 -207 -96.5 -329t-257.5 -122q-130 0 -203.5 89.5t-73.5 248.5zM979 383q0 -169 43.5 -258.5t124.5 -89.5q78 0 118 81.5t40 241.5q0 149 -44 232.5t-120 83.5t-119 -77t-43 -214z " />
<glyph unicode="&#x26;" horiz-adv-x="1526" d="M53 274q0 133 92.5 249.5t276.5 215.5q-31 46 -46.5 93.5t-15.5 95.5q0 71 29 136.5t84 117.5q69 64 149.5 99.5t157.5 35.5q86 0 136.5 -44.5t50.5 -121.5q0 -97 -87.5 -186.5t-256.5 -165.5q93 -123 190.5 -238.5t200.5 -226.5q46 44 72 101.5t26 113.5q0 15 -4 36 t-12 52l-133 14v47h421v-47l-133 -18q-41 -114 -91 -199t-107 -139q104 -136 199.5 -192t217.5 -56v-47q-38 2 -84 3t-137 1t-137 -1t-85 -3q-13 28 -40.5 64t-81.5 94q-119 -91 -247 -136t-265 -45q-158 0 -249 79.5t-91 217.5zM231 391q0 -129 91.5 -211t236.5 -82 q91 0 167 25.5t140 77.5q-121 138 -344 411l-69 84q-114 -62 -168 -136.5t-54 -168.5zM537 1051q0 -46 16 -98t49 -109q105 49 156 110.5t51 139.5q0 60 -35.5 97.5t-91.5 37.5q-64 0 -104.5 -50t-40.5 -128z" />
<glyph unicode="'" horiz-adv-x="352" d="M86 1356q0 50 23.5 78t66.5 28q42 0 66 -27t24 -75q0 -7 -0.5 -15t-3.5 -27l-67 -458h-35l-70 459q0 2 -1 8q-3 20 -3 29z" />
<glyph unicode="(" horiz-adv-x="705" d="M154 524q0 328 112 551t309 289v-47q-121 -52 -181 -254.5t-60 -562.5q0 -335 60.5 -527.5t180.5 -242.5v-45q-203 72 -312 289t-109 550z" />
<glyph unicode=")" horiz-adv-x="705" d="M123 -270q121 52 182.5 245t61.5 525q0 358 -61 561.5t-183 255.5v47q198 -68 311 -291t113 -549q0 -332 -110.5 -550.5t-313.5 -288.5v45z" />
<glyph unicode="*" d="M160 995v111q109 -6 174.5 -11.5t120.5 -11.5q-42 59 -86.5 117t-89.5 115l92 59q25 -45 54.5 -99t90.5 -163q24 42 71 134.5t70 135.5l93 -57q-42 -58 -155 -216l-15 -21q43 2 115 7q166 12 171 13v-111q-107 12 -172 17.5t-120 7.5q55 -78 97 -134.5t81 -105.5l-97 -61 q-28 58 -60 119.5t-81 154.5q-31 -68 -66 -137t-75 -141l-90 57q50 68 94 129t83 119q-58 -3 -128.5 -9t-171.5 -18z" />
<glyph unicode="+" horiz-adv-x="1706" d="M254 541v139h528v541h142v-541h528v-139h-528v-541h-142v541h-528z" />
<glyph unicode="," horiz-adv-x="612" d="M90 -354q66 93 102 208.5t44 256.5q50 15 99.5 34t100.5 41q-25 -137 -94 -269.5t-180 -256.5z" />
<glyph unicode="-" horiz-adv-x="868" d="M66 412v116q64 -1 138 -1.5t222 -0.5q149 0 223 0.5t137 1.5v-116h-720z" />
<glyph unicode="." horiz-adv-x="612" d="M190 104q0 50 32.5 81.5t84.5 31.5q50 0 83.5 -32t33.5 -81q0 -50 -32.5 -82t-84.5 -32t-84.5 32t-32.5 82z" />
<glyph unicode="/" horiz-adv-x="1006" d="M-6 -145l940 1509l55 -35l-936 -1509z" />
<glyph unicode="0" horiz-adv-x="1223" d="M86 623q0 335 167 537t441 202q197 0 320 -167.5t123 -442.5q0 -152 -34.5 -286t-94.5 -222q-89 -130 -211.5 -201.5t-255.5 -71.5q-218 0 -336.5 169.5t-118.5 482.5zM293 659q0 -286 79.5 -445t221.5 -159q161 0 245.5 155.5t84.5 453.5q0 291 -83 454.5t-229 163.5 q-158 0 -238.5 -156.5t-80.5 -466.5z" />
<glyph unicode="1" horiz-adv-x="1223" d="M225 1087l11 101q137 42 267.5 87t256.5 93h45q-19 -161 -28 -376t-9 -484q0 -135 4 -241t12 -193l166 -27v-47q-80 5 -152 7.5t-136 2.5q-66 0 -136 -2.5t-149 -7.5v47l172 25q9 139 13.5 287t4.5 305q0 135 -2.5 275.5t-7.5 288.5z" />
<glyph unicode="2" horiz-adv-x="1223" d="M68 0v96q121 40 236 119.5t226 202.5q101 111 153 232.5t52 244.5q0 165 -87 267t-226 102q-100 0 -158.5 -60.5t-58.5 -163.5q0 -14 1.5 -31t4.5 -38l-14 -15l-107 48q43 166 173.5 263t309.5 97q170 0 270.5 -94t100.5 -252q0 -211 -159.5 -433t-440.5 -397l6 -14h99 q265 0 387.5 11t148.5 36l31 172h51v-399q-138 5 -248 7.5t-203 2.5q-143 0 -485 -3q-42 -1 -63 -1z" />
<glyph unicode="3" horiz-adv-x="1223" d="M115 145q0 19 55 78q30 32 48 51l22 -4q3 -109 71.5 -173t182.5 -64q141 0 236 105.5t95 264.5q0 142 -83.5 213.5t-247.5 71.5q-36 0 -54.5 -1t-36.5 -3v66q8 0 22 -2.5t21 -2.5q174 0 264.5 71.5t90.5 207.5q0 121 -70 197.5t-178 76.5q-88 0 -146.5 -52t-70.5 -142 l-17 -12l-77 90q69 94 159 139t209 45q170 0 267.5 -77.5t97.5 -211.5q0 -106 -66 -192t-188 -137v-10q152 -2 234.5 -78.5t82.5 -217.5q0 -101 -51 -193.5t-147 -166.5q-73 -55 -160 -82t-191 -27q-131 0 -252.5 63.5t-121.5 108.5z" />
<glyph unicode="4" horiz-adv-x="1223" d="M53 441v79q80 93 261 318t397 499h180q-4 -123 -6 -265.5t-2 -313.5v-193q80 0 245 8h7q0 -23 0.5 -49t3.5 -79q-35 0 -74.5 0.5t-110.5 0.5h-69q0 -96 3.5 -189.5t10.5 -184.5l152 -23l-1 -49q-74 5 -142 7.5t-130 2.5q-60 0 -126.5 -2.5t-139.5 -6.5v50l155 29 q6 76 9.5 165.5t5.5 202.5q-35 2 -75.5 2.5t-121.5 0.5q-95 0 -202.5 -3t-229.5 -7zM184 555h189q46 0 109.5 -1t82.5 -1q73 0 95 10t22 41v191q0 85 -1 184t-3 209z" />
<glyph unicode="5" horiz-adv-x="1223" d="M100 119q22 27 44 58t46 69h21q18 -95 88 -152t166 -57q147 0 243.5 114t96.5 287q0 162 -79.5 252t-221.5 90q-60 0 -111.5 -14t-97.5 -43l-33 17q2 147 6 293.5t11 291.5h458q82 0 150.5 6.5t128.5 20.5q-40 -120 -83.5 -158.5t-160.5 -38.5h-422q-9 -109 -14 -191 t-6 -151q69 26 146 38.5t163 12.5q186 0 281.5 -90.5t95.5 -267.5q0 -88 -35.5 -174.5t-103.5 -165.5q-83 -95 -199.5 -145t-255.5 -50q-105 0 -181.5 35.5t-140.5 112.5z" />
<glyph unicode="6" horiz-adv-x="1223" d="M121 422q0 273 188 525.5t510 408.5l94 -19l-2 -16q-219 -84 -358.5 -239.5t-192.5 -376.5q92 66 182.5 99.5t180.5 33.5q151 0 251.5 -102.5t100.5 -254.5q0 -111 -47 -207t-137 -168q-80 -64 -175 -97.5t-200 -33.5q-187 0 -291 118t-104 329zM344 453 q0 -183 72.5 -296.5t187.5 -113.5q123 0 190.5 87.5t67.5 246.5q0 170 -72 269t-194 99q-50 0 -93.5 -15.5t-90.5 -51.5q-39 -29 -53.5 -64.5t-14.5 -126.5v-34z" />
<glyph unicode="7" horiz-adv-x="1223" d="M229 1167l47 201q94 -24 214 -33.5t384 -9.5q92 0 146.5 1.5t103.5 4.5q0 -51 -32 -99q-6 -9 -9 -14q-268 -454 -382.5 -717t-163.5 -501q-23 2 -50 3t-84 1q-55 0 -84 -1t-54 -3q340 556 478 787.5t211 365.5q-73 -9 -149 -13.5t-156 -4.5q-138 0 -242 8t-178 24z" />
<glyph unicode="8" horiz-adv-x="1223" d="M145 313q0 134 78.5 229.5t235.5 153.5q-120 34 -179 108.5t-59 192.5q0 162 129.5 266.5t329.5 104.5q151 0 242.5 -80t91.5 -211q0 -105 -63.5 -191.5t-184.5 -146.5q146 -20 222.5 -100t76.5 -215q0 -192 -150 -322.5t-372 -130.5q-181 0 -289.5 93.5t-108.5 248.5z M332 375q0 -143 80.5 -238.5t197.5 -95.5q108 0 176 78.5t68 204.5q0 153 -75 245.5t-199 92.5q-113 0 -180.5 -78t-67.5 -209zM403 1065q0 -130 68 -216.5t166 -86.5q92 0 149.5 78t57.5 207q0 116 -64 191t-162 75q-99 0 -157 -66.5t-58 -181.5z" />
<glyph unicode="9" horiz-adv-x="1223" d="M143 852q0 102 31 185.5t92 146.5q81 83 198 131.5t241 48.5q170 0 272 -114t102 -306q0 -298 -182.5 -554.5t-501.5 -403.5h-116l-5 26q218 84 351 226t184 346q-84 -59 -163.5 -87t-160.5 -28q-156 0 -249 104t-93 279zM324 954q0 -166 88 -277.5t217 -111.5 q108 0 169.5 81t61.5 224q0 193 -71 305.5t-191 112.5q-124 0 -199 -91t-75 -243z" />
<glyph unicode=":" horiz-adv-x="674" d="M221 104q0 50 32.5 81.5t84.5 31.5q50 0 84.5 -32.5t34.5 -80.5q0 -50 -33.5 -82t-85.5 -32t-84.5 32t-32.5 82zM221 838q0 51 32.5 82.5t84.5 31.5q50 0 84.5 -33t34.5 -81q0 -50 -33.5 -81.5t-85.5 -31.5t-84.5 31.5t-32.5 81.5z" />
<glyph unicode=";" horiz-adv-x="674" d="M133 -354q66 94 102 209.5t44 255.5q44 14 93.5 32.5t106.5 42.5q-24 -141 -93 -272.5t-181 -253.5zM231 838q0 50 33.5 82t85.5 32q50 0 83.5 -33t33.5 -81q0 -50 -32.5 -81.5t-84.5 -31.5t-85.5 31.5t-33.5 81.5z" />
<glyph unicode="&#x3c;" horiz-adv-x="1706" d="M264 547v129l1178 483v-153l-969 -396l969 -393v-154z" />
<glyph unicode="=" horiz-adv-x="1706" d="M254 342v139h1198v-139h-1198zM254 739v140h1198v-140h-1198z" />
<glyph unicode="&#x3e;" horiz-adv-x="1706" d="M264 63v154l971 393l-971 396v153l1178 -483v-129z" />
<glyph unicode="?" horiz-adv-x="911" d="M160 1278q93 30 181.5 45.5t170.5 15.5q137 0 214 -66.5t77 -185.5q0 -154 -191 -368q-23 -26 -34 -39q-83 -96 -106 -142t-23 -92q0 -13 4 -27.5t12 -29.5l-143 -72q-8 12 -12.5 25.5t-4.5 26.5q0 64 109 203q32 40 49 63q78 103 119 199.5t41 181.5q0 112 -65.5 186 t-160.5 74q-84 0 -126 -48t-42 -145v-20h-38q-5 56 -13 110t-18 105zM279 109q0 48 32 78t84 30q49 0 82 -32.5t33 -80.5q0 -46 -33.5 -77t-83.5 -31t-82 31.5t-32 81.5z" />
<glyph unicode="@" horiz-adv-x="2019" d="M141 537q0 203 86.5 380.5t251.5 313.5q134 111 294.5 167t342.5 56q346 0 555 -188.5t209 -499.5q0 -159 -58.5 -298t-166.5 -237q-59 -52 -126 -80t-134 -28q-96 0 -149 53t-60 156q-62 -105 -138 -156t-169 -51q-129 0 -206 92t-77 246q0 109 49.5 216t140.5 195 q68 65 146 99.5t155 34.5q90 0 146 -48.5t76 -142.5l51 174h158l-172 -612l-4 -12q-15 -56 -15 -86q0 -51 23.5 -79t66.5 -28q33 0 80.5 20t89.5 52q119 90 179.5 228.5t60.5 318.5q0 133 -52.5 245t-156.5 201q-90 77 -214 118.5t-267 41.5q-180 0 -335.5 -61.5 t-275.5 -180.5q-126 -124 -190 -287t-64 -358q0 -182 57 -313t179 -234q109 -92 254 -141t307 -49q170 0 327 51.5t300 155.5l33 -41q-147 -110 -312.5 -166t-345.5 -56q-189 0 -345.5 45.5t-274.5 135.5q-151 113 -230.5 276.5t-79.5 360.5zM760 369q0 -86 39.5 -138.5 t101.5 -52.5q65 0 122.5 43.5t111.5 132.5q55 93 88.5 204t33.5 198q0 92 -42 148.5t-111 56.5q-54 0 -98.5 -30.5t-90.5 -99.5q-71 -107 -113 -233.5t-42 -228.5z" />
<glyph unicode="A" horiz-adv-x="1419" d="M-88 0v45q54 2 85.5 8.5t43.5 18.5q13 13 40 58.5t79 143.5q197 374 334 659.5t137 311.5q0 15 -8 23t-25 10l-100 10v41h12q151 -8 223 -8q28 0 58 1t87 3q130 -381 235 -679.5t151 -418.5q3 -9 9 -25q56 -149 193 -153v-47q-221 0 -328.5 -0.5t-196.5 -1.5l-1 45 l137 27q-24 91 -60 211t-86 270q-63 3 -135 4.5t-151 1.5q-66 0 -132.5 -1.5t-131.5 -4.5q-72 -158 -121 -277.5t-80 -209.5l142 -19l-3 -47h-12q-139 4 -203 4q-37 0 -78 -1t-114 -3zM416 621q81 -3 129 -4t88 -1q65 0 131.5 1.5t138.5 5.5q-45 141 -96 286t-109 297h-10 q-69 -142 -136.5 -287.5t-135.5 -297.5z" />
<glyph unicode="B" horiz-adv-x="1278" d="M74 0v45l112 16q17 4 26 9t13 13q9 25 14 171.5t5 413.5q0 243 -5 395.5t-14 178.5q-4 8 -13.5 13.5t-25.5 8.5l-112 14v47q36 -1 76.5 -1.5t115.5 -0.5q138 0 294 5t175 5q169 0 252.5 -69t83.5 -209q0 -116 -84 -202.5t-229 -119.5v-10q201 -3 307 -82.5t106 -226.5 q0 -190 -157 -301t-426 -111q-31 0 -121.5 1t-151.5 1q-92 0 -143 -1t-98 -3zM438 737h6q56 -4 78 -4q167 0 247.5 67t80.5 206q0 126 -71 197t-197 71q-26 0 -58.5 -3t-72.5 -9q-7 -99 -10 -221t-3 -304zM439 678v-91q1 -153 3 -261q4 -138 11 -252q66 -8 103.5 -11.5 t64.5 -3.5q160 0 244.5 73t84.5 212q0 158 -107.5 247t-299.5 89q-32 0 -55.5 -0.5t-48.5 -1.5z" />
<glyph unicode="C" horiz-adv-x="1313" d="M72 635q0 336 210 532.5t568 196.5q64 0 144.5 -11.5t176.5 -33.5l25 31l45 -13q-22 -91 -36 -165t-23 -146h-45l-11 101q-7 63 -111.5 119.5t-232.5 56.5q-228 0 -360.5 -153.5t-132.5 -416.5q0 -306 157 -489t418 -183q97 0 182.5 28.5t159.5 84.5l23 -45 q-110 -77 -232.5 -116.5t-255.5 -39.5q-310 0 -489.5 177.5t-179.5 484.5z" />
<glyph unicode="D" horiz-adv-x="1532" d="M74 0v45l110 16q16 3 27 9t14 13q9 25 14 201t5 502q0 188 -5.5 306t-15.5 150q-2 6 -12.5 12t-26.5 8l-110 16v45q42 -1 90 -1.5t135 -0.5q164 0 343 4t196 4q314 0 466 -150.5t152 -461.5q0 -345 -215.5 -532t-613.5 -187q-40 0 -158.5 3t-198.5 3q-58 0 -184 -4h-12z M436 573q0 -173 4.5 -299t10.5 -152q5 -23 80.5 -39.5t191.5 -16.5q254 0 380 140.5t126 424.5q0 324 -142 479.5t-440 155.5q-88 0 -136.5 -11t-57.5 -32q-9 -19 -13 -171t-4 -479z" />
<glyph unicode="E" horiz-adv-x="1149" d="M74 0v45l110 16q16 3 27 9t14 13q9 25 14 195t5 484q0 201 -5.5 325.5t-15.5 153.5q-4 9 -13.5 14.5t-25.5 8.5l-110 14v47q90 -1 223.5 -2.5t165.5 -1.5q86 0 262.5 2t267.5 2q0 -64 1.5 -134.5t4.5 -143.5h-49l-20 88q-16 70 -93.5 97.5t-287.5 27.5h-100 q-7 -104 -10 -226t-3 -295h86q161 0 219.5 20.5t65.5 72.5l10 71h41q-3 -42 -4.5 -84.5t-1.5 -87.5q0 -52 1.5 -104t4.5 -106l-41 -1l-18 80q-18 75 -339 83q-16 1 -24 1q0 -26 -1 -76t-1 -73q0 -117 3.5 -231.5t11.5 -225.5h71q254 0 362 31.5t136 107.5l45 133l45 -4 q-13 -107 -32 -323l-3 -27q-238 4 -425 6t-255 2q-109 0 -179 -1t-140 -3z" />
<glyph unicode="F" horiz-adv-x="1065" d="M74 0v45l110 16q16 3 27 9t14 13q9 27 14 194.5t5 476.5q0 206 -5.5 334t-15.5 158q-3 8 -13 14t-26 8l-110 14v43h360q139 0 279 1.5t284 4.5q-4 -48 -6 -97t-2 -101q0 -38 0.5 -55.5t1.5 -32.5l-41 -1l-20 99q-14 63 -88.5 88.5t-253.5 25.5q-54 0 -83.5 -0.5 t-55.5 -1.5q-7 -116 -10 -245t-3 -271h53q194 0 245 20.5t59 76.5l12 75h47q-4 -41 -6 -87t-2 -99q0 -58 2 -108.5t6 -96.5h-47l-8 65q-7 55 -67.5 76t-240.5 21h-53q-1 -67 -1.5 -127t-0.5 -115v-180q0 -120 12 -156.5t46 -42.5l110 -14v-47q-50 2 -108 3t-168 1 q-106 0 -157.5 -1t-94.5 -3z" />
<glyph unicode="G" horiz-adv-x="1454" d="M76 618q0 342 211 538t579 196q75 0 159 -11.5t175 -33.5l17 32l45 -10q-16 -71 -29 -151.5t-25 -169.5l-45 4l-6 105q-5 65 -117 120t-256 55q-223 0 -358 -158.5t-135 -422.5q0 -297 156.5 -476.5t412.5 -179.5q69 0 119 18.5t74 53.5q11 15 15.5 51t4.5 129 q0 48 -3.5 103t-10.5 118q-2 9 -8 14t-17 7l-137 16v47q101 -2 153 -3t97 -1t100 1t166 3v-47l-108 -18q-7 -2 -10 -5.5t-5 -11.5q-5 -40 -7.5 -88t-2.5 -108q0 -86 1 -159t3 -150q-29 8 -61.5 16t-71.5 16q-106 -41 -208 -61.5t-204 -20.5q-312 0 -487.5 170.5 t-175.5 472.5z" />
<glyph unicode="H" horiz-adv-x="1583" d="M74 0v45l112 16q18 4 27 8.5t12 11.5q10 30 14.5 163t4.5 420q0 265 -5 411t-14 171q-3 8 -13 14t-26 8l-112 14v45h6q170 -4 256 -4q46 0 101 1t163 3v-47l-106 -14q-33 -6 -45.5 -39t-12.5 -127v-228q0 -14 1 -46t1 -49q2 -7 5 -10t9 -5q140 -3 209.5 -3.5t129.5 -0.5 q59 0 129 0.5t213 3.5q5 1 8.5 4.5t5.5 10.5q0 18 1 52.5t1 49.5v213q0 100 -12.5 135t-44.5 39l-111 14v47q103 -2 159 -3t103 -1q86 0 260 4h6v-45l-110 -16q-18 -4 -27 -8.5t-12 -12.5q-9 -25 -14 -185t-5 -452q0 -237 5 -368.5t14 -157.5q3 -8 13 -13.5t26 -7.5l110 -16 v-45q-47 2 -102 3t-164 1t-163 -1t-99 -3v47l111 14q33 4 45 43t12 166v160q0 94 -0.5 147t-1.5 102q-2 7 -5.5 10.5t-8.5 4.5q-112 3 -171 3.5t-110 0.5q-99 0 -199 -1.5t-201 -4.5q-7 -2 -9.5 -4t-4.5 -9q-1 -60 -1.5 -116.5t-0.5 -126.5v-178q0 -119 12 -155t46 -42 l106 -14v-47q-46 2 -100.5 3t-163.5 1q-108 0 -162 -1t-100 -3z" />
<glyph unicode="I" horiz-adv-x="678" d="M74 0v45l112 16q18 4 27 8.5t12 11.5q10 28 14.5 161t4.5 424q0 290 -4.5 422.5t-14.5 159.5q-4 8 -13.5 13t-25.5 7l-112 14v45q44 0 132 -1t132 -1t133 1t133 1v-45l-112 -14q-16 -3 -26 -9t-13 -13q-10 -27 -14.5 -159.5t-4.5 -420.5q0 -266 4.5 -411.5t14.5 -173.5 q3 -7 13 -12.5t26 -7.5l112 -16v-45q-47 2 -102.5 3t-165.5 1q-109 0 -163 -1t-99 -3z" />
<glyph unicode="J" horiz-adv-x="991" d="M76 4q15 104 23.5 173.5t15.5 135.5l45 -6v-100q0 -70 46.5 -110t127.5 -40q73 0 125.5 40t85.5 120q18 45 25.5 155.5t7.5 372.5q0 196 -5.5 333.5t-13.5 162.5q-4 9 -13.5 15t-23.5 8l-139 16v47q70 -3 137.5 -4.5t136.5 -1.5t137 1.5t137 4.5l1 -47l-115 -16 q-30 -4 -41.5 -50.5t-11.5 -177.5q0 -34 1 -140t1 -179v-99q0 -193 -25.5 -290.5t-85.5 -171.5q-67 -84 -173 -130t-232 -46q-34 0 -114 14q-39 7 -60 10z" />
<glyph unicode="K" horiz-adv-x="1317" d="M74 0v45l112 16q18 4 28 10t11 12q9 30 14 176.5t5 410.5q0 285 -4.5 415.5t-14.5 158.5q-3 9 -12.5 14.5t-26.5 7.5l-112 14v45h6q174 -4 260 -4q48 0 103.5 1t158.5 3v-45l-114 -16q-29 -4 -40.5 -45t-11.5 -179v-131q0 -68 -0.5 -106.5t-1.5 -72.5l17 -11 q133 110 263.5 245.5t258.5 295.5l-6 14l-111 6v47q68 -2 103 -3t65 -1q62 0 117 2t106 6v-41l-96 -16q-68 -38 -185 -145.5t-317 -317.5l541 -676q36 -45 78.5 -65t107.5 -23l2 -45h-145q-141 0 -208 -0.5t-121 -1.5l-1 41l88 12q-101 152 -227.5 308t-278.5 315l-51 -31 l4 -428q0 -77 11.5 -113.5t36.5 -40.5l126 -16v-47q-114 3 -170 3.5t-104 0.5q-49 0 -105 -1t-159 -3z" />
<glyph unicode="L" horiz-adv-x="1100" d="M74 0v47l106 14q22 4 32 9t13 13q9 23 14 213t5 499q0 199 -5 312.5t-14 138.5q-3 8 -13 14t-26 8l-112 14v47h6q174 -4 260 -4q47 0 103 1t159 3v-47l-112 -14q-33 -6 -45.5 -46t-12.5 -157q0 -25 1 -96.5t1 -118.5q0 -241 4.5 -443.5t10.5 -290.5q1 -24 8 -32t32 -8h89 q203 0 302.5 29.5t118.5 95.5l39 139h49q-11 -100 -18 -184.5t-11 -159.5q-199 5 -347.5 7.5t-266.5 2.5q-87 0 -179.5 -1.5t-190.5 -4.5z" />
<glyph unicode="M" horiz-adv-x="1968" d="M41 0v49l129 25q22 5 38 154q4 42 7 67q29 270 42 463t13 348q0 29 -0.5 60.5t-3.5 94.5l-160 17l3 47q22 0 80 -1t94 -1q30 0 105 1t118 1q134 -333 250.5 -597t234.5 -505q208 415 336 692t174 412h6q142 -4 211 -4q26 0 77 1t75 1v-43l-104 -10q-28 -3 -39 -19 t-11 -55q0 -30 3.5 -137.5t9.5 -235.5q9 -216 19 -394.5t15 -248.5q9 -79 40 -100t139 -33v-49q-48 2 -102.5 3t-160.5 1q-105 0 -156.5 -1t-95.5 -3l-2 49l123 21q3 89 3.5 137t0.5 92q0 198 -10 405.5t-31 423.5q-118 -240 -241 -509.5t-275 -622.5h-135 q-194 460 -306.5 714t-197.5 425l-7 -4q-3 -57 -14.5 -421.5t-29.5 -625.5l158 -35l-1 -49q-55 3 -110 4.5t-108 1.5t-103.5 -1.5t-99.5 -4.5z" />
<glyph unicode="N" horiz-adv-x="1577" d="M61 0v47l120 17q15 1 25 6.5t13 13.5q11 34 19 279.5t8 607.5q0 74 -2 147t-7 146q-23 4 -52 7.5t-87 9.5v46q31 0 87.5 -1t82.5 -1q28 0 78.5 1t73.5 1q217 -275 439 -535.5t450 -504.5q-7 316 -21 576.5t-26 362.5q-4 21 -13.5 29t-30.5 11l-131 16v45h7q149 -4 221 -4 q40 0 88.5 1t136.5 3v-45l-112 -16q-16 -2 -26 -7t-13 -13q-9 -27 -16 -187t-7 -377q0 -311 4 -473.5t12 -216.5l-108 4q-314 393 -542 655.5t-425 460.5q11 -433 21 -686.5t22 -324.5q4 -22 12 -29t32 -11l116 -14v-46q-40 1 -87 2t-140 1q-92 0 -137.5 -1t-84.5 -3z" />
<glyph unicode="O" horiz-adv-x="1522" d="M74 604q0 123 30.5 232t90.5 200q100 149 272 232.5t381 83.5q286 0 441 -160.5t155 -458.5q0 -360 -214.5 -560t-600.5 -200q-251 0 -403 172.5t-152 458.5zM279 721q0 -296 146 -482t374 -186q198 0 318 145.5t120 387.5q0 309 -142.5 500.5t-367.5 191.5 q-205 0 -326.5 -150.5t-121.5 -406.5z" />
<glyph unicode="P" horiz-adv-x="1145" d="M74 0v45l110 16q17 4 26.5 9.5t12.5 13.5q11 30 16 188.5t5 462.5q0 213 -5.5 345.5t-15.5 165.5q-3 7 -12 11.5t-27 8.5l-110 14v45q30 -1 63.5 -1.5t93.5 -0.5q98 0 217 4t140 4q162 0 242 -9t120 -30q72 -37 109 -105.5t37 -162.5q0 -216 -154.5 -339.5t-425.5 -123.5 q-29 0 -45 0.5t-32 1.5q-1 -21 0 -59.5t1 -54.5q0 -55 -2 -131.5t-2 -100.5q0 -88 12 -118.5t44 -35.5l110 -16v-47q-47 2 -102 3t-164 1t-163 -1t-99 -3zM438 631q28 -3 49.5 -4.5t38.5 -1.5q169 0 256.5 95t87.5 277q0 137 -78 207t-231 70q-26 0 -55 -1.5t-59 -4.5 q-5 -118 -7 -241t-2 -253v-143z" />
<glyph unicode="Q" horiz-adv-x="1522" d="M74 600q0 119 28 224.5t80 187.5q108 165 277.5 251.5t388.5 86.5q286 0 441 -161.5t155 -457.5q0 -205 -68.5 -356t-206.5 -250l281 -152q80 -43 156.5 -66.5t136.5 -23.5q31 0 58.5 7t53.5 22l17 -27q-73 -50 -141 -77t-119 -27q-46 0 -111 20t-209 82l-327 142 q-96 -24 -178.5 -36t-151.5 -12q-258 0 -409.5 168t-151.5 455zM279 696q0 -289 137.5 -471t351.5 -182q208 0 339.5 159t131.5 412q0 302 -135.5 486t-353.5 184q-211 0 -341 -161t-130 -427z" />
<glyph unicode="R" horiz-adv-x="1280" d="M74 0v45l110 16q17 4 26.5 9.5t12.5 13.5q11 30 16 188.5t5 462.5q0 213 -5.5 345.5t-15.5 165.5q-3 7 -12 11.5t-27 8.5l-110 14v45q37 -1 79.5 -1.5t118.5 -0.5q117 0 246.5 3t143.5 3q198 0 296.5 -77t98.5 -232q0 -135 -87.5 -229t-244.5 -129l127 -181q4 -5 11 -15 q267 -384 337 -403l64 -16v-47q-30 2 -63.5 3t-100.5 1q-65 0 -97.5 -1t-60.5 -3l-416 629h-90v-105v-108v-172q0 -109 11.5 -142t44.5 -39l110 -16v-47q-46 2 -101 3t-165 1q-108 0 -162 -1t-100 -3zM436 782l1 -94q22 -3 44 -4.5t41 -1.5q158 0 246 77t88 216 q0 151 -77 223t-240 72q-23 0 -81 -4h-11q-6 -150 -8.5 -266.5t-2.5 -217.5z" />
<glyph unicode="S" horiz-adv-x="1098" d="M57 -35q18 76 33.5 165t32.5 202l45 -3q10 -143 80 -206.5t217 -63.5q141 0 223 79t82 214q0 101 -50.5 168.5t-156.5 108.5q-9 3 -29 11q-387 147 -387 329q0 167 132 274t346 107q74 0 128.5 -5t104.5 -16l21 31l36 -4q-15 -69 -27 -149.5t-22 -174.5h-46q0 6 0.5 13.5 t0.5 21.5q0 110 -66 162.5t-204 52.5q-103 0 -162 -59t-59 -160q0 -94 51 -146.5t215 -105.5q12 -4 36 -11q174 -54 228 -100q57 -48 86 -109.5t29 -135.5q0 -91 -46 -182t-128 -164q-80 -70 -185 -106t-233 -36q-55 0 -117.5 9t-134.5 26l-27 -37h-47z" />
<glyph unicode="T" horiz-adv-x="1278" d="M16 1030q16 77 26.5 150.5t17.5 144.5q176 -7 313.5 -10t261.5 -4q125 0 264 3.5t317 10.5q9 -83 18.5 -156t20.5 -139l-45 -4q-17 82 -35 121t-45 53q-47 25 -137 38.5t-250 18.5q-4 -86 -6 -203t-2 -395q0 -194 3.5 -339t11.5 -250l172 -23v-47q-49 2 -106 3t-173 1 q-117 0 -176.5 -1t-110.5 -3v47l174 23q7 88 10 223t3 371q0 266 -2 383.5t-7 207.5q-171 -4 -268 -17.5t-131 -37.5q-27 -18 -44.5 -59t-29.5 -115z" />
<glyph unicode="U" horiz-adv-x="1616" d="M45 1282v47h18q183 -4 265 -4q49 0 104.5 1t148.5 3l1 -47l-150 -23q-7 -114 -10.5 -235t-3.5 -248q0 -221 11 -326t38 -163q45 -99 137 -158t201 -59q118 0 216.5 58t154.5 161v18q4 243 4 355q0 190 -3.5 337t-11.5 260l-147 23v47q98 -2 153 -3t103 -1q88 0 274 4h6 v-47l-167 -22q-8 -108 -11.5 -231t-3.5 -267q0 -190 4.5 -363.5t14.5 -328.5l174 -23l-1 -47q-73 3 -109 3.5t-66 0.5q-65 0 -119 -2t-101 -6v164q-123 -97 -243 -141t-260 -44q-130 0 -219 41t-150 127q-40 58 -58 156.5t-18 278.5q0 21 1 100.5t1 136.5q0 109 -3 220 t-9 225z" />
<glyph unicode="V" horiz-adv-x="1522" d="M-8 1280v47q113 -2 171 -3t107 -1q48 0 106.5 1t173.5 3l1 -47l-150 -20q97 -276 198 -535.5t208 -509.5q202 433 319 712t117 326q0 3 -2 5t-7 4l-140 18v47h6q157 -4 231 -4q42 0 90.5 1t128.5 3v-47l-145 -16q-164 -290 -313 -606.5t-283 -657.5h-145 q-156 422 -275.5 724.5t-173.5 410.5l-1 2q-72 143 -206 143h-16z" />
<glyph unicode="W" horiz-adv-x="2144" d="M14 1280l1 47q105 -2 158.5 -3t96.5 -1q45 0 98 1t156 3v-47l-143 -20q31 -243 81.5 -500t121.5 -533q122 252 242.5 528t236.5 572h145q44 -144 153.5 -428.5t258.5 -634.5q115 390 178 624t90 372l-141 20v47h6q133 -4 197 -4q35 0 76 1t114 3v-47l-100 -20 q-66 -101 -177.5 -435t-242.5 -825h-133q-93 258 -239 635.5t-183 476.5q-41 -97 -207 -466.5t-283 -645.5h-139q-15 57 -109.5 474t-185.5 783z" />
<glyph unicode="X" horiz-adv-x="1421" d="M-8 0l2 45l117 16q156 141 290.5 289t247.5 303q-136 213 -235 356t-185 251l-133 24l1 43q108 -2 163 -3t102 -1t104 1t162 3l1 -39l-111 -20q34 -81 100 -195t160 -256q145 171 224 283.5t79 146.5q0 12 -7.5 17.5t-25.5 7.5l-92 8l1 47q38 -1 81 -1.5t129 -0.5 t128.5 0.5t78.5 1.5v-47q-1 0 -4 1q-16 3 -24 3q-114 0 -468 -446l-61 -76q194 -298 287.5 -432.5t161.5 -217.5q2 -2 6 -7q47 -58 155 -60l4 -45q-51 1 -110 1.5t-170 0.5q-109 0 -161 -0.5t-95 -1.5l2 45l125 12q-45 88 -132 227.5t-202 307.5q-86 -98 -180.5 -230.5 t-192.5 -293.5l144 -23l-1 -45q-60 3 -120 4.5t-119 1.5t-115.5 -1.5t-111.5 -4.5z" />
<glyph unicode="Y" horiz-adv-x="1341" d="M-18 1280v47q100 -2 156 -3t104 -1q90 0 276 4h6v-47l-137 -23q76 -167 158 -313t174 -276q125 179 221.5 330.5t153.5 258.5l-133 23v47q72 -2 113.5 -3t76.5 -1q64 0 200 4h7v-47l-123 -23q-83 -85 -191.5 -235t-273.5 -410q-3 -67 -4.5 -123.5t-1.5 -103.5 q0 -62 2.5 -139t7.5 -176l174 -23v-47q-49 2 -107.5 3t-172.5 1q-116 0 -173 -1t-106 -3v47l174 23q4 49 6 104.5t2 120.5q0 71 -2 134.5t-6 121.5l-207 352q-16 28 -46 80q-124 210 -175 274z" />
<glyph unicode="Z" horiz-adv-x="1391" d="M94 -12v32q262 365 466.5 664.5t377.5 572.5q-303 -3 -459.5 -15.5t-199.5 -37.5q-37 -20 -64 -130q-6 -26 -10 -41l-45 -1q17 118 26.5 183.5t14.5 109.5q135 -3 265 -4.5t255 -1.5q96 0 222.5 1.5t282.5 4.5l1 -31q-180 -228 -383.5 -536t-421.5 -680h39 q278 0 461 19.5t245 56.5q30 17 49.5 56t34.5 118h49q-10 -86 -18.5 -167t-16.5 -165q-63 1 -181 3q-367 5 -498 5q-119 0 -241 -4t-251 -12z" />
<glyph unicode="[" horiz-adv-x="705" d="M205 -219q7 162 10.5 372.5t3.5 481.5q0 315 -3.5 454.5t-10.5 247.5h336v-43l-162 -30q-7 -111 -9.5 -244.5t-2.5 -327.5q0 -273 3 -483t9 -354l162 -27v-47h-336z" />
<glyph unicode="\" horiz-adv-x="1006" d="M-6 1329l57 35l938 -1509l-59 -35z" />
<glyph unicode="]" horiz-adv-x="705" d="M166 -172l162 27q5 130 7.5 326t2.5 511q0 239 -2.5 356t-8.5 216l-161 30v43h336q-9 -125 -13 -285t-4 -372q0 -307 4 -524.5t13 -374.5h-336v47z" />
<glyph unicode="^" horiz-adv-x="2048" d="M412 897l514 565h194l512 -565h-98l-512 420l-514 -420h-96z" />
<glyph unicode="_" d="M0 -340h1024v-143h-1024v143z" />
<glyph unicode="`" d="M176 1415h193l354 -358h-96z" />
<glyph unicode="a" horiz-adv-x="1098" d="M59 238q0 140 125 227.5t328 87.5q55 0 108.5 -5t103.5 -15q2 12 2.5 27t0.5 44q0 154 -60 226.5t-186 72.5q-101 0 -161.5 -63.5t-63.5 -171.5l-39 -6q-6 54 -14.5 108.5t-20.5 112.5q107 43 205.5 63.5t198.5 20.5q191 0 260 -63.5t69 -237.5q0 -51 -6 -179t-6 -206 q0 -79 3.5 -125t10.5 -65q8 -17 41 -27t99 -17l-1 -49q-75 1 -150.5 1.5t-186.5 0.5v102q-110 -62 -215.5 -92t-208.5 -30q-102 0 -169 73.5t-67 184.5zM270 285q0 -97 52 -151t145 -54q109 0 183.5 42.5t74.5 106.5v197q0 44 -46.5 60t-168.5 16t-181 -53.5t-59 -163.5z " />
<glyph unicode="b" horiz-adv-x="1143" d="M-18 1405v47h6q125 -4 184 -4q34 0 72.5 1t113.5 3q-5 -72 -7.5 -159.5t-2.5 -209.5q0 -7 1 -38q1 -110 1 -207q76 67 167.5 100t201.5 33q174 0 260 -104.5t86 -315.5q0 -265 -135.5 -415t-372.5 -150q-64 0 -121 21t-119 69q-44 -22 -79 -40.5t-64 -35.5h-33 q9 98 13 242t4 506q0 370 -3.5 470t-11.5 126q-3 13 -19.5 24.5t-39.5 15.5zM342 592q0 -154 8 -273t19 -151q18 -62 65.5 -95.5t116.5 -33.5q141 0 224 116t83 316t-70.5 310t-197.5 110q-123 0 -185.5 -75.5t-62.5 -223.5z" />
<glyph unicode="c" horiz-adv-x="922" d="M61 453q0 234 139 376t367 142q55 0 131.5 -11.5t173.5 -33.5l-61 -254h-43v16q0 103 -66 163t-178 60q-129 0 -189.5 -96t-60.5 -303t84.5 -328t227.5 -121q49 0 113.5 22.5t146.5 68.5v-50q-98 -66 -190 -97.5t-189 -31.5q-199 0 -302.5 121.5t-103.5 356.5z" />
<glyph unicode="d" horiz-adv-x="1149" d="M68 467q0 230 133 366t358 136q62 0 117.5 -13.5t105.5 -40.5v123v148q0 72 -2 111t-6 55q-4 13 -19 21.5t-43 13.5l-100 18l1 47q32 -1 71 -1.5t115 -0.5q77 0 115.5 0.5t70.5 1.5q-9 -148 -13 -404t-5 -618q0 -58 2 -141t2 -107v-49q0 -35 10.5 -48t52.5 -22l96 -18 v-45h-6q-116 4 -170 4q-49 0 -94 -1.5t-88 -4.5v94q-90 -56 -164 -81t-147 -25q-189 0 -291 125t-102 356zM270 555q0 -221 84 -346t232 -125q58 0 104.5 21.5t79.5 64.5q5 160 7.5 292t2.5 247q0 103 -57.5 158t-165.5 55q-136 0 -211.5 -96t-75.5 -271z" />
<glyph unicode="e" horiz-adv-x="938" d="M90 446q0 245 128 383t353 138q141 0 223.5 -75t90.5 -210l-586 -178q10 -205 101.5 -324t238.5 -119q56 0 110 22.5t113 70.5l6 -50q-83 -65 -182.5 -100t-202.5 -35q-183 0 -288 127t-105 350zM289 629q0 -28 8 -44t22 -16q6 0 8 0.5t4 1.5l294 93q24 8 36.5 20.5 t12.5 30.5q0 73 -56 130.5t-131 57.5q-93 0 -145.5 -72.5t-52.5 -201.5z" />
<glyph unicode="f" horiz-adv-x="750" d="M41 904v40q9 1 30 3q85 9 138 14q-1 10 -1.5 22t-0.5 35q0 213 108 325.5t314 112.5q58 0 109 -6.5t95 -19.5q-4 -19 -14 -59q-27 -110 -41 -173h-41v6q0 92 -39.5 140.5t-113.5 48.5q-96 0 -140.5 -80t-44.5 -252v-96q75 -6 157.5 -9.5t180.5 -5.5v-41 q-60 -6 -174.5 -17.5t-163.5 -17.5q-3 -103 -4.5 -212t-1.5 -224q0 -71 3 -175t3 -136q0 -31 13.5 -45t44.5 -19l133 -18v-45q-49 2 -106.5 3t-170.5 1q-112 0 -166.5 -1t-101.5 -3v45l104 18q24 5 38.5 15t17.5 25t5.5 126t2.5 279q0 100 -4 336v37q-73 11 -108 15.5 t-60 7.5z" />
<glyph unicode="g" horiz-adv-x="1161" d="M59 -248q0 20 5 43.5t14 46.5l160 129q-54 19 -81.5 50t-27.5 73q0 58 116 159q28 24 44 38q-79 41 -120.5 113.5t-41.5 166.5q0 179 132.5 289.5t346.5 110.5q34 0 111 -9l45 -6l330 5v-48l-220 -28q35 -49 51.5 -104.5t16.5 -118.5q0 -187 -120 -295.5t-326 -108.5 q-36 0 -78 5.5t-88 17.5q-20 -16 -28.5 -32.5t-8.5 -35.5q0 -72 173 -88h5l250 -23q173 -16 248 -73t75 -172q0 -168 -155.5 -277.5t-401.5 -109.5q-195 0 -310.5 77t-115.5 205zM203 -229q0 -111 87 -182.5t226 -71.5q157 0 250.5 65t93.5 172q0 86 -56 129.5t-184 55.5 l-341 28q-39 -54 -57.5 -102t-18.5 -94zM313 633q0 -154 61.5 -240t170.5 -86q104 0 161.5 71.5t57.5 201.5q0 158 -58 243.5t-165 85.5q-108 0 -168 -72.5t-60 -203.5z" />
<glyph unicode="h" horiz-adv-x="1260" d="M37 1405v47h6q125 -4 186 -4q35 0 76 1t108 3q-6 -125 -10 -278.5t-6 -329.5q89 61 188.5 92t209.5 31q160 0 225 -63.5t65 -219.5q0 -1 -4 -132.5t-4 -262.5v-150q0 -38 11 -52.5t47 -20.5l106 -21v-45q-43 2 -94.5 3t-155.5 1q-106 0 -160 -1t-102 -3v45l97 21 q27 6 40.5 15t16.5 22q4 17 6 110.5t2 288.5q0 211 -54 299t-180 88q-83 0 -157.5 -45.5t-102.5 -114.5v-186q0 -162 -1 -337q-1 -43 -1 -52q0 -54 12 -67.5t47 -20.5l105 -21v-45q-42 2 -93 3t-157 1q-105 0 -160 -1t-102 -3v45l100 21q36 6 49 19.5t13 55.5v19v76 q2 267 2 514q0 380 -2 480t-6 117q-4 12 -20 21.5t-42 15.5z" />
<glyph unicode="i" horiz-adv-x="588" d="M41 913v47q71 -2 110 -3t72 -1t72.5 1l118.5 3q-8 -89 -11.5 -213t-3.5 -292q0 -161 2 -250.5t4 -103.5q4 -14 19 -23.5t39 -14.5l98 -18v-45q-42 2 -93 3t-157 1q-105 0 -159.5 -1t-102.5 -3v45l95 19q28 5 42 13.5t17 23.5q4 16 6 81t2 193q0 209 -1.5 322t-4.5 132 q-4 32 -18.5 45.5t-49.5 20.5zM174 1333q0 50 34 81.5t87 31.5q49 0 83 -33t34 -82t-33.5 -79.5t-87.5 -30.5q-51 0 -84 31.5t-33 80.5z" />
<glyph unicode="j" horiz-adv-x="575" d="M-256 -481q18 56 30.5 116t20.5 125h49q-1 -8 -1.5 -16.5t-0.5 -24.5q0 -67 29.5 -103t83.5 -36q145 0 203.5 161t58.5 611q0 177 -3.5 316.5t-6.5 158.5q-5 31 -20 47t-43 21l-101 20v46q6 -1 18 -1q133 -4 195 -4q30 0 63.5 1t92.5 3q-7 -78 -10 -164.5t-3 -181.5 q0 -54 2 -144t2 -126q0 -248 -27 -374t-91 -224q-74 -115 -184.5 -180.5t-227.5 -65.5q-25 0 -56 4.5t-73 14.5zM178 1333q0 50 32.5 81.5t84.5 31.5q51 0 85 -33t34 -82q0 -48 -33.5 -79t-85.5 -31t-84.5 31.5t-32.5 80.5z" />
<glyph unicode="k" horiz-adv-x="1204" d="M37 1405v47h6q125 -4 186 -4q35 0 76 1t108 3q-9 -159 -13.5 -334.5t-4.5 -367.5q0 -33 1 -100.5t1 -102.5h29q113 81 199.5 171t134.5 175l-94 18v49q47 -3 93.5 -4.5t94.5 -1.5q49 0 99.5 1.5t101.5 4.5v-45l-129 -16q-56 -33 -139.5 -105t-190.5 -180q15 -18 44 -55 q410 -516 556 -516q11 0 16.5 0.5t10.5 1.5l-1 -43q-34 1 -75.5 1.5t-128.5 0.5q-111 0 -168 -1t-107 -3v45l66 8q-137 185 -238 304t-141 143h-33q0 -249 1.5 -316.5t4.5 -82.5q4 -14 17 -22.5t34 -12.5l99 -21v-45q-42 2 -93 3t-155 1t-157.5 -1t-100.5 -3v45l101 21 q36 7 48.5 24t12.5 84v928q0 38 1 92.5t1 71.5q0 64 -14.5 87t-55.5 31z" />
<glyph unicode="l" horiz-adv-x="602" d="M39 1405v45q31 -1 67.5 -1.5t106.5 -0.5q85 0 126 1t75 3q-8 -177 -12.5 -400.5t-4.5 -486.5q0 -191 2.5 -318t5.5 -146q4 -14 19 -23.5t39 -14.5l98 -18v-45q-42 2 -92.5 3t-155.5 1q-107 0 -161.5 -1t-102.5 -3v45l95 19q28 5 42 13.5t17 23.5q5 24 7.5 133t2.5 286 q0 334 -2.5 553.5t-5.5 246.5q-4 31 -18.5 45t-48.5 21z" />
<glyph unicode="m" horiz-adv-x="1925" d="M47 915v47q50 -2 101.5 -4t101.5 -2q43 0 87.5 2t86.5 4q-4 -40 -6 -81t-2 -86q97 88 191.5 130t195.5 42q109 0 176 -46t84 -133q93 91 189 135t200 44q148 0 211 -67t63 -226q0 -49 -4 -175t-4 -202v-104q0 -74 13 -96.5t50 -28.5l107 -21v-47q-41 2 -91.5 3t-156.5 1 q-109 0 -166 -1t-108 -3v47l93 19q30 7 43 15.5t16 21.5q5 26 8.5 141.5t3.5 281.5q0 165 -54 250.5t-157 85.5q-44 0 -88 -18.5t-92 -57.5q-44 -34 -60 -70.5t-16 -119.5v-264q0 -93 2.5 -156.5t5.5 -77.5q3 -11 15 -18t42 -12l95 -21v-47q-46 2 -99 3t-157 1t-155.5 -1 t-94.5 -3v47l90 19q36 8 47.5 16t13.5 20q4 15 6.5 88t2.5 181q0 291 -47.5 390t-165.5 99q-43 0 -85.5 -17.5t-93.5 -56.5q-44 -35 -60.5 -72.5t-16.5 -115.5v-268q0 -82 3 -149t7 -85q2 -10 14 -16.5t42 -12.5l95 -20v-47q-46 2 -100.5 3t-161.5 1q-105 0 -157 -1t-97 -3 v47l99 19q29 5 42.5 14t16.5 24q3 14 5.5 90t2.5 189q0 241 -8 429v15q-2 36 -16 48.5t-47 19.5z" />
<glyph unicode="n" horiz-adv-x="1266" d="M43 915v46q4 -1 11 -1q120 -4 179 -4q33 0 72 1t111 3q-3 -28 -4.5 -58.5t-1.5 -61.5v-41q93 86 190.5 127t208.5 41q145 0 211.5 -65.5t66.5 -209.5q0 -2 -4 -120t-4 -234v-203q0 -36 12 -50.5t47 -20.5l107 -19l2 -45q-43 2 -94.5 3t-157.5 1t-160 -1t-102 -3v45l96 18 q25 5 40 14.5t18 21.5q3 13 5.5 116.5t2.5 259.5q0 216 -51.5 306.5t-169.5 90.5q-51 0 -106.5 -23t-102.5 -65q-37 -33 -51.5 -69.5t-14.5 -116.5v-244q0 -39 -1 -95t-1 -73q0 -70 12.5 -92.5t48.5 -29.5l101 -19v-45q-42 2 -93 3t-155 1q-105 0 -159.5 -1t-102.5 -3v45 l103 21q39 8 52 36t13 115q0 18 -1 74t-1 94q0 58 -2 176.5t-2 179.5v47q0 57 -14.5 76.5t-53.5 28.5z" />
<glyph unicode="o" horiz-adv-x="1155" d="M63 451q0 235 155 375.5t415 140.5q218 0 334 -114t116 -329q0 -243 -162 -397t-419 -154q-205 0 -322 127.5t-117 350.5zM270 555q0 -239 86.5 -382.5t227.5 -143.5q135 0 215 110.5t80 300.5q0 215 -85 345t-223 130q-136 0 -218.5 -98.5t-82.5 -261.5z" />
<glyph unicode="p" horiz-adv-x="1194" d="M23 913v48q5 -1 16 -1q122 -4 180 -4q34 0 73 1t103 3l-4 -120q99 63 198.5 96t192.5 33q162 0 243 -98t81 -293q0 -269 -149.5 -427.5t-401.5 -158.5q-48 0 -92.5 8.5t-85.5 26.5q0 -213 2 -314.5t6 -120.5q4 -12 19 -22.5t34 -13.5l107 -19v-45q-43 2 -93 3t-155 1 q-107 0 -162.5 -1t-103.5 -3v45l103 19q14 3 29 12t19 16q8 13 12.5 108.5t4.5 262.5q0 32 -2 112.5t-2 131.5v61q2 189 2 358v91q0 112 -15 145t-57 41zM373 205q0 -89 40 -122.5t142 -33.5q169 0 251.5 113t82.5 344q0 188 -62 276t-194 88q-122 0 -191 -61.5t-69 -171.5 v-432z" />
<glyph unicode="q" horiz-adv-x="1182" d="M102 410q0 257 137.5 404t378.5 147q78 0 140.5 -19.5t115.5 -58.5q34 21 62 43t53 47l35 -2q-6 -109 -9 -238.5t-3 -279.5q0 -369 2 -566t6 -268q2 -33 14 -44.5t47 -18.5l99 -19v-45q-50 2 -106.5 3t-164.5 1q-103 0 -153 -1t-92 -3v45l98 19q29 5 41.5 12.5t15.5 21.5 q5 25 8 157.5t4 371.5l-8 8q-83 -71 -171.5 -106t-184.5 -35q-178 0 -271.5 108t-93.5 316zM297 473q0 -186 76.5 -292.5t208.5 -106.5q123 0 183 73t60 224q0 232 -6 316t-20 114q-26 53 -73 79.5t-114 26.5q-141 0 -228 -118.5t-87 -315.5z" />
<glyph unicode="r" horiz-adv-x="897" d="M47 913v48q4 -1 13 -1q126 -4 184 -4q34 0 72.5 1t107.5 3q-5 -56 -7.5 -99.5t-2.5 -80.5q83 102 153.5 144.5t153.5 42.5q38 0 71 -4.5t66 -14.5q-19 -67 -35 -137t-28 -141h-45q-4 85 -33.5 123t-91.5 38q-105 0 -161 -74t-56 -212v-203q0 -33 -1 -80t-1 -61 q0 -77 12 -100.5t50 -30.5l118 -23v-47q-49 2 -105 3t-166 1q-108 0 -161 -1t-99 -3v47l103 23q33 7 45 21t12 59v10q0 5 1 31q3 108 3 212q0 233 -8 410v12q-4 37 -17.5 49.5t-46.5 18.5z" />
<glyph unicode="s" horiz-adv-x="893" d="M84 0q17 66 29 132t20 132h47v-8q0 -122 47.5 -173.5t159.5 -51.5q99 0 160 55.5t61 144.5q0 116 -195 193q-39 16 -61 25q-107 43 -164 104t-57 131q0 130 101 207.5t274 77.5q61 0 125 -7.5t131 -21.5q-18 -56 -29.5 -110t-17.5 -105h-49l-15 82q-6 40 -60.5 73 t-117.5 33q-72 0 -118 -41t-46 -106q0 -62 41 -101t172 -85q157 -57 214 -117t57 -158q0 -152 -130 -243t-350 -91q-56 0 -113 7.5t-116 21.5z" />
<glyph unicode="t" horiz-adv-x="782" d="M35 903v45l155 8q0 12 -3 97t-4 150l175 143l39 -5q-10 -95 -15 -174.5t-5 -148.5q0 -10 1 -31.5t1 -32.5l375 -4v-39l-375 -47q0 -10 -1 -30q-3 -164 -3 -236q0 -312 42.5 -420t151.5 -108q26 0 55.5 7.5t63.5 22.5l6 -53q-61 -29 -129 -44t-139 -15q-132 0 -185 92.5 t-53 341.5q0 24 2.5 110t2.5 148q0 33 -1 74t-4 125q-36 8 -127 21q-17 2 -26 3z" />
<glyph unicode="u" horiz-adv-x="1309" d="M33 915v46q2 -1 6 -1q121 -4 182 -4q33 0 72.5 1l118.5 3q-9 -66 -13 -160.5t-4 -269.5q0 -185 14.5 -253.5t49.5 -114.5q34 -46 88 -70t121 -24q39 0 80 12.5t88 40.5q43 25 58 51.5t15 95.5v27v289q0 37 1 89.5t1 69.5q0 85 -13 112t-52 36l-105 24v46q7 -1 19 -1 q128 -4 184 -4q36 0 75 1t97 3q-8 -59 -12 -165.5t-4 -253.5v-346q0 -71 13 -94t50 -31l103 -23v-47q-34 2 -73 3t-118 1q-76 0 -113.5 -1t-68.5 -3q1 13 1.5 29.5t0.5 52.5q-108 -49 -203.5 -72.5t-181.5 -23.5q-96 0 -163.5 31.5t-100.5 91.5q-24 42 -33.5 106t-9.5 197 v139v254q0 51 -12 66t-48 22z" />
<glyph unicode="v" horiz-adv-x="1147" d="M-27 909v49q78 -3 153 -4.5t148 -1.5q37 0 80.5 1t128.5 3v-47l-143 -24q23 -99 81 -258.5t177 -444.5q107 215 187.5 397.5t123.5 307.5l-112 26l4 43q20 0 62.5 -1t64.5 -1q55 0 111.5 1.5t115.5 4.5l-4 -47l-104 -14q-118 -190 -413 -794l-50 -103l-117 -8 q-98 260 -188.5 481t-176.5 408z" />
<glyph unicode="w" horiz-adv-x="1786" d="M4 915v45q66 -3 131.5 -4.5t128.5 -1.5q65 0 129 1.5t125 4.5v-45h-3q-140 -16 -140 -63q0 -76 24.5 -263.5t67.5 -404.5q109 189 213.5 383t206.5 394h133l301 -768q65 180 118 354t95 342l-143 26v46q3 -1 12 -1q123 -4 182 -4q35 0 76 1t110 3l-2 -45 q-99 -13 -137 -94l-6 -12q-44 -92 -124.5 -314t-164.5 -495l-139 -4q-68 181 -146 374.5t-167 401.5l-443 -772l-137 -4q-31 252 -71.5 471.5t-90.5 409.5z" />
<glyph unicode="x" horiz-adv-x="1167" d="M0 -2l2 47l109 18q74 52 181.5 155t244.5 251q-162 239 -239 330t-120 98l-92 16v45q51 -2 110 -3t177 -1q96 0 144 0.5t89 1.5v-43l-135 -24q39 -68 85.5 -140.5t100.5 -148.5q76 79 130.5 151.5t89.5 139.5l-121 22v45q52 -3 103 -4.5t99 -1.5q49 0 96.5 1.5t94.5 4.5 v-45q-4 0 -11.5 1t-11.5 1q-133 0 -398 -317l-38 -45q123 -189 188.5 -283t108.5 -143q39 -46 81 -63t112 -17v-47h-18q-194 4 -283 4q-35 0 -100.5 -1t-96.5 -1v43l111 14q-45 79 -101 168t-121 187q-72 -71 -143 -155.5t-143 -184.5l4 -13l102 -10l4 -45q-117 0 -213.5 -2 t-181.5 -6z" />
<glyph unicode="y" horiz-adv-x="1249" d="M23 907v49q49 -3 100 -4.5t102 -1.5q87 0 267 8h12v-45l-142 -18q104 -383 171.5 -566.5t105.5 -183.5q18 0 32.5 16t30.5 56l207 475q50 114 63 147.5t13 43.5t-4.5 15t-19.5 7l-99 8v43h88q77 0 252 4q17 0 25 1v-46l-115 -18q0 1 -0.5 1.5t-3.5 0.5q-17 0 -176 -335 q-105 -222 -174 -365q-45 -93 -123 -251q-182 -368 -187 -448h-313l2 35q126 12 247 146t236 388q-43 -10 -81 -26t-72 -39q-81 181 -214 590q-50 156 -77 235q-15 45 -39 57.5t-114 20.5z" />
<glyph unicode="z" horiz-adv-x="1051" d="M76 0v25q152 197 300.5 406t311.5 460q-139 0 -256 -10t-211 -29q-13 -29 -24 -65t-19 -76h-47q8 71 13.5 131.5t9.5 118.5q34 -1 100 -3q198 -6 264 -6q96 0 200.5 1.5t217.5 4.5v-24l-98 -145q-277 -408 -490 -719l390 10q78 2 123.5 48t82.5 167h51 q-17 -76 -32.5 -150t-28.5 -147q-81 5 -163.5 7.5t-170.5 2.5q-75 0 -213.5 -2t-310.5 -6z" />
<glyph unicode="{" d="M178 604v64q161 13 219 73.5t58 221.5v206q0 199 82 273t301 74h10v-53q-136 -2 -186 -55t-50 -210v-141q0 -227 -59 -308.5t-217 -113.5q159 -32 217.5 -113.5t58.5 -308.5v-141q0 -157 49.5 -209t186.5 -54v-53h-10q-219 0 -301 74t-82 272v207q0 161 -59 221.5 t-218 73.5z" />
<glyph unicode="|" d="M438 -483v2048h150v-2048h-150z" />
<glyph unicode="}" d="M176 -191q137 2 186.5 54.5t49.5 208.5v141q0 227 58.5 308.5t217.5 113.5q-158 32 -217 113.5t-59 308.5v141q0 157 -50 210t-186 55v53h10q220 0 302.5 -74t82.5 -273v-206q0 -161 58 -221.5t219 -73.5v-64q-161 -13 -219 -73.5t-58 -221.5v-207q0 -198 -82.5 -272 t-302.5 -74h-10v53z" />
<glyph unicode="~" horiz-adv-x="1706" d="M178 451v155q106 72 202 108t185 36q62 0 127.5 -13.5t163.5 -48.5q16 -5 47 -17q159 -57 240 -57q88 0 179.5 37t207.5 119v-156q-104 -72 -199 -106.5t-190 -34.5q-93 0 -256 58q-22 8 -34 12q-5 2 -15 5q-176 60 -273 60q-84 0 -175 -37t-210 -120z" />
<glyph unicode="&#xa1;" horiz-adv-x="653" d="M199 1229q0 48 33 79t83 31q52 0 83.5 -31t31.5 -81q0 -49 -33 -79t-86 -30q-49 0 -80.5 31t-31.5 80zM219 -4q20 180 35 420t25 555l81 34q12 -277 35 -512.5t60 -453.5z" />
<glyph unicode="&#xa2;" horiz-adv-x="1223" d="M168 455q0 225 127.5 362.5t355.5 157.5v147h51l1 -149q74 -5 145 -16.5t139 -30.5l-65 -254l-43 2v12q0 93 -43.5 147.5t-133.5 75.5v-843q56 5 119 29t137 67l-2 -56q-66 -44 -128.5 -72.5t-125.5 -43.5v-189h-51v180l-45 -3t-26 -1q-199 0 -305.5 123.5t-106.5 354.5z M381 537q0 -210 69 -328.5t201 -138.5v845h-8q-133 0 -197.5 -93.5t-64.5 -284.5z" />
<glyph unicode="&#xa3;" horiz-adv-x="1223" d="M-84 -2l125 211h18q84 0 133.5 98t88.5 348q-22 2 -61 6q-76 8 -109 11v47q76 5 114.5 8.5t71.5 7.5q34 325 147.5 473t325.5 148q54 0 114 -8.5t124 -24.5q-20 -55 -35.5 -116.5t-28.5 -131.5l-45 9q3 15 4.5 28t1.5 27q0 73 -43 113t-121 40q-27 0 -54.5 -11.5 t-49.5 -31.5q-78 -75 -113 -295q-5 -33 -8 -51l-28 -170q77 -7 150 -10.5t144 -3.5v-43q-44 -3 -148 -11t-157 -12q-20 -117 -91.5 -225.5t-202.5 -222.5q20 1 43 1.5t69 0.5q154 0 374.5 -21.5t286.5 -21.5q55 0 84 18.5t29 53.5q0 23 -13.5 46.5t-47.5 55.5 q25 13 49.5 29.5t50.5 38.5q24 -29 35.5 -58.5t11.5 -60.5q0 -34 -16.5 -66t-48.5 -63l-134 -125q-20 -19 -56 -30t-79 -11q-36 0 -237 17.5t-365 17.5q-73 0 -149 -7.5t-154 -21.5z" />
<glyph unicode="&#xa4;" horiz-adv-x="1241" d="M80 428l207 205q-41 51 -62.5 116t-21.5 136q0 70 21 133t63 119l-207 206l82 80l205 -204q57 43 120 64.5t134 21.5t134.5 -21.5t121.5 -64.5l204 204l82 -80l-205 -206q41 -55 61.5 -118t20.5 -134q0 -73 -20 -135.5t-62 -116.5l205 -205l-82 -82l-204 205 q-59 -44 -122 -65t-132 -21q-72 0 -135.5 21.5t-120.5 64.5l-205 -205zM319 887q0 -126 89 -215.5t215 -89.5q125 0 214 89.5t89 215.5q0 125 -89 214t-214 89q-126 0 -215 -89t-89 -214z" />
<glyph unicode="&#xa5;" horiz-adv-x="1212" d="M23 1274v53q90 -2 136 -3t85 -1q63 0 127 1.5t126 4.5l1 -45l-121 -14l180 -371h258l170 367l-98 22v45q48 -4 101 -6t114 -2q45 0 66.5 0.5t41.5 1.5v-51q-7 2 -15 3t-24 1q-92 0 -240 -288q-31 -60 -48 -93h280v-55h-309l-113 -207h422v-55h-436q0 -8 -1 -25 q-3 -116 -3 -168q0 -96 2.5 -173t7.5 -146l174 -23v-47q-51 2 -109.5 3t-174.5 1q-115 0 -171 -1t-104 -3v47l174 23q1 20 1 56q3 133 3 181q0 59 -3 207q0 31 -1 47l-12 21h-459v55h428l-106 207h-322v55h289q-57 114 -103.5 201t-89.5 157zM582 844q15 -32 37 -83 q38 -87 57 -87q18 0 67 93q25 48 41 77h-202z" />
<glyph unicode="&#xa6;" d="M438 -350v758h150v-758h-150zM438 674v758h150v-758h-150z" />
<glyph unicode="&#xa7;" d="M135 -453l105 129l24 -6q6 -70 64 -114.5t143 -44.5t140 57.5t55 146.5q0 69 -43.5 132.5t-188.5 181.5q-160 128 -213 211.5t-53 183.5q0 92 45.5 191.5t130.5 191.5q-46 46 -69 101.5t-23 121.5q0 148 99.5 244t252.5 96q88 0 162 -31.5t115 -87.5l-95 -106l-26 12 q-14 79 -57.5 117.5t-120.5 38.5q-76 0 -126 -51.5t-50 -131.5q0 -65 32.5 -121t153.5 -161q6 -5 17 -15q286 -249 286 -413q0 -102 -42 -198.5t-126 -186.5q48 -50 72 -105.5t24 -117.5q0 -160 -111.5 -260.5t-293.5 -100.5q-90 0 -158.5 23.5t-124.5 72.5zM326 549 q0 -126 74 -227t294 -256q27 56 40.5 108t13.5 100q0 127 -87.5 245.5t-283.5 256.5q-26 -53 -38.5 -109t-12.5 -118z" />
<glyph unicode="&#xa8;" d="M166 1333q0 49 33 81t84 32q49 0 81.5 -32t32.5 -81t-32 -80.5t-82 -31.5q-51 0 -84 31.5t-33 80.5zM623 1333q0 50 31.5 81.5t82.5 31.5q50 0 83.5 -32.5t33.5 -80.5q0 -49 -32.5 -80.5t-84.5 -31.5q-50 0 -82 31.5t-32 80.5z" />
<glyph unicode="&#xa9;" horiz-adv-x="1683" d="M131 678q0 141 53.5 270t155.5 232q100 101 230.5 156t273.5 55q138 0 269 -54.5t230 -152.5q100 -99 154.5 -232t54.5 -274q0 -140 -53.5 -269.5t-155.5 -232.5q-99 -101 -228 -155t-273 -54q-142 0 -270 53.5t-232 155.5q-103 102 -156 229t-53 273zM223 678 q0 -127 46.5 -239t136.5 -201q91 -90 201.5 -136.5t234.5 -46.5q126 0 237 46.5t199 136.5q89 90 136.5 204t47.5 236q0 123 -48 241t-134 203q-86 86 -201 134.5t-235 48.5q-123 0 -238 -49t-203 -138q-88 -90 -134 -202.5t-46 -237.5zM420 670q0 183 118.5 307.5 t290.5 124.5q75 0 149.5 -33t80.5 -33q27 0 42 14.5t21 47.5h37l2 -316h-43q-32 135 -103 204t-177 69q-119 0 -179.5 -93.5t-60.5 -277.5q0 -187 66.5 -284t193.5 -97q84 0 153.5 44t127.5 132l39 -26q-61 -105 -148 -158t-199 -53q-173 0 -292 124t-119 304z" />
<glyph unicode="&#xaa;" horiz-adv-x="823" d="M45 821q0 99 93.5 160t246.5 61q42 0 81.5 -3.5t78.5 -9.5v50q0 108 -45 158.5t-140 50.5q-75 0 -120.5 -44.5t-47.5 -121.5l-28 -4q-4 32 -9.5 66t-17.5 90q78 29 152 43t151 14q143 0 194.5 -43.5t51.5 -165.5q0 -36 -4 -126t-4 -144q0 -61 2.5 -91t7.5 -42 q6 -12 30 -19t74 -12v-35q-56 1 -113 1.5t-140 0.5v72q-84 -44 -162.5 -65t-155.5 -21q-76 0 -126 51.5t-50 128.5zM203 854q0 -67 39 -105t108 -38q82 0 138.5 30t56.5 74v139q0 31 -35 42.5t-127 11.5q-91 0 -135.5 -38t-44.5 -116z" />
<glyph unicode="&#xab;" horiz-adv-x="1018" d="M131 467q52 68 145 190t134 177l131 36q-65 -86 -130 -178t-130 -192l84 -166q27 -53 61 -109t76 -116l-137 -58zM494 467q51 66 143 188.5t135 178.5l131 36q-73 -97 -138 -188.5t-124 -181.5l86 -166q26 -52 60 -107.5t77 -117.5l-139 -58z" />
<glyph unicode="&#xac;" horiz-adv-x="1706" d="M254 721v139h1198v-502h-137v363h-1061z" />
<glyph unicode="&#xad;" horiz-adv-x="868" d="M66 412v116q64 -1 138 -1.5t222 -0.5q149 0 223 0.5t137 1.5v-116h-720z" />
<glyph unicode="&#xae;" horiz-adv-x="1683" d="M131 678q0 142 53 270.5t154 231.5q100 101 231.5 156t274.5 55q140 0 273 -56t233 -157q97 -99 149.5 -230.5t52.5 -275.5q0 -139 -56 -270t-161 -234q-100 -99 -228 -150t-276 -51q-134 0 -261.5 54.5t-229.5 154.5q-102 101 -155.5 229t-53.5 273zM223 678 q0 -127 46.5 -239t136.5 -201q89 -90 199.5 -136.5t236.5 -46.5q125 0 237 47t199 136q88 90 135 203t47 237q0 125 -47.5 242t-132.5 202q-86 86 -201 134.5t-235 48.5q-123 0 -238 -49t-203 -138q-88 -90 -134 -202.5t-46 -237.5zM467 289v44q69 4 95 25.5t26 73.5v516 q0 53 -26 74.5t-95 26.5v45h397q144 0 231 -54t87 -141q0 -83 -66 -131.5t-219 -75.5q95 -28 145 -76.5t70 -130.5q6 -23 11 -65q12 -88 57 -88q31 0 47 33.5t16 97.5h45v-19q0 -84 -41 -129t-119 -45q-49 0 -84 16t-51 46q-20 37 -22 110t-8 97q-19 71 -66.5 105t-130.5 34 h-29v-246q0 -51 25.5 -72t93.5 -27v-44h-389zM737 981l1 -260q13 -1 28 -1.5t35 -0.5q105 0 163 45t58 127q0 72 -50 116t-134 44q-51 0 -76 -17.5t-25 -52.5z" />
<glyph unicode="&#xaf;" d="M162 1253v109h6q227 -8 342 -8q61 0 132.5 1.5t215.5 6.5v-108q-145 2 -216 2.5t-132 0.5q-115 0 -342 -4h-6z" />
<glyph unicode="&#xb0;" horiz-adv-x="674" d="M49 1167q0 120 85 204.5t204 84.5q118 0 202.5 -84.5t84.5 -204.5q0 -119 -84 -202.5t-205 -83.5t-204 83t-83 203zM143 1169q0 -81 57 -138.5t138 -57.5t136.5 57.5t55.5 138.5t-55.5 137t-136.5 56t-138 -56t-57 -137z" />
<glyph unicode="&#xb1;" horiz-adv-x="1706" d="M254 29v141h1198v-141h-1198zM254 713v139h528v340h142v-340h528v-139h-528v-340h-142v340h-528z" />
<glyph unicode="&#xb2;" horiz-adv-x="807" d="M45 533v57q80 24 155 71t150 121q67 67 101 139.5t34 147.5q0 99 -57.5 160t-148.5 61q-67 0 -105.5 -35.5t-38.5 -97.5q0 -8 3 -30q1 -8 1 -13l-10 -8l-70 29q30 100 116 158.5t204 58.5q112 0 178 -57t66 -152q0 -126 -105.5 -259.5t-290.5 -238.5l4 -8h66 q175 0 255.5 6.5t96.5 22.5l21 102h35l-1 -240q-78 3 -153.5 5t-142.5 2q-138 0 -215 -0.5t-148 -1.5z" />
<glyph unicode="&#xb3;" horiz-adv-x="807" d="M76 621q0 10 40 49q17 16 27 26l15 -2q3 -65 48 -103t120 -38q93 0 156 63t63 158q0 85 -55.5 128.5t-163.5 43.5q-23 0 -35.5 -1t-23.5 -3l-1 41q5 0 14.5 -2t14.5 -2q114 0 173.5 43t59.5 125q0 72 -45.5 118t-117.5 46q-58 0 -96 -31t-48 -86l-10 -6l-51 53 q46 57 105 84t138 27q112 0 176 -46.5t64 -125.5q0 -65 -44 -117t-124 -82v-6q102 -2 156.5 -47.5t54.5 -128.5q0 -61 -34 -117.5t-97 -99.5q-48 -34 -105.5 -50t-125.5 -16q-88 0 -168 38.5t-80 66.5z" />
<glyph unicode="&#xb4;" d="M319 1057l349 358h190l-450 -358h-89z" />
<glyph unicode="&#xb5;" horiz-adv-x="1169" d="M-102 -326q0 44 70 277t110 422l108 512h168l-100 -475q-9 -40 -13.5 -74.5t-4.5 -59.5q0 -70 41.5 -108.5t119.5 -38.5q97 0 154 54.5t82 172.5l112 529h173l-115 -532q-9 -43 -14 -75.5t-5 -52.5q0 -48 26.5 -74t76.5 -26q44 0 81 25t58 69q13 27 27 73q17 56 39 56 q9 0 15.5 -8t6.5 -21q0 -34 -13.5 -88t-35.5 -100q-39 -78 -92.5 -117t-122.5 -39q-81 0 -125.5 55t-44.5 154v13q-52 -115 -123 -168.5t-172 -53.5q-95 0 -151 56t-68 164q-33 -143 -64 -355q-37 -260 -116 -260q-43 0 -65.5 24.5t-22.5 69.5z" />
<glyph unicode="&#xb6;" d="M66 1130q0 157 107.5 253t285.5 96h499v-86h-120v-1393h-111v1393h-176v-1393h-113v782q-170 8 -271 102.5t-101 245.5z" />
<glyph unicode="&#xb7;" horiz-adv-x="612" d="M190 668q0 49 32.5 80.5t84.5 31.5q50 0 83.5 -32t33.5 -80q0 -51 -32.5 -83t-84.5 -32t-84.5 32t-32.5 83z" />
<glyph unicode="&#xb8;" d="M360 -141q0 10 6 18t19 19l135 104h64l-53 -71q-2 -2 -4 -5q-11 -14 -11 -20q0 -15 22 -37q3 -3 5 -4l84 -84q20 -21 31.5 -44.5t11.5 -45.5q0 -41 -68 -86.5t-211 -100.5l-26 33q68 40 101.5 72.5t33.5 58.5q0 23 -13 45t-63 72l-22 22q-42 39 -42 54z" />
<glyph unicode="&#xb9;" horiz-adv-x="807" d="M147 1186l9 59q107 31 189 56.5t155 52.5h30q-12 -97 -18 -226t-6 -290q0 -88 2.5 -150t7.5 -110l111 -17v-28q-48 3 -96 4.5t-95 1.5t-94.5 -1.5t-93.5 -4.5v28l114 14q6 96 8.5 184t2.5 171q0 90 -1.5 174.5t-4.5 164.5z" />
<glyph unicode="&#xba;" horiz-adv-x="866" d="M47 971q0 164 116.5 262t311.5 98q164 0 251 -79.5t87 -229.5q0 -170 -121.5 -277.5t-314.5 -107.5q-154 0 -242 89.5t-88 244.5zM203 1044q0 -167 65 -267.5t170 -100.5q102 0 161.5 77.5t59.5 211.5q0 149 -63.5 240t-167.5 91q-101 0 -163 -69t-62 -183z" />
<glyph unicode="&#xbb;" horiz-adv-x="1018" d="M92 51q57 77 119.5 165.5t140.5 205.5l-84 166q-28 55 -62.5 111.5t-74.5 113.5l137 57l234 -415q-79 -111 -150.5 -204t-128.5 -161zM453 51q65 88 131 181t131 190l-86 166q-32 62 -65.5 117.5t-69.5 107.5l137 57l233 -415q-74 -104 -145.5 -196.5t-134.5 -168.5z" />
<glyph unicode="&#xbc;" horiz-adv-x="1882" d="M141 1194l6 57q91 25 172.5 50t157.5 51h29q-12 -85 -17.5 -202.5t-5.5 -279.5q0 -81 2.5 -139t8.5 -104l104 -15v-26q-46 3 -92 4.5t-90 1.5q-46 0 -90.5 -1.5t-89.5 -4.5v26l108 15q6 78 9 160.5t3 168.5q0 85 -1.5 164t-4.5 154zM436 -82l963 1544l47 -30l-961 -1543z M1145 246v45q62 65 174.5 189t241.5 270h112q-2 -55 -3 -121t-1 -205v-107q27 0 59.5 1t98.5 3q0 -12 1 -36t1 -35h-115h-45q0 -56 2.5 -108.5t8.5 -100.5l94 -14l-1 -27q-42 3 -85 4.5t-86 1.5q-42 0 -83.5 -1.5t-82.5 -4.5v29l96 17q3 33 5.5 77t4.5 129h-125 q-66 0 -134.5 -1.5t-137.5 -4.5zM1229 311h119q28 0 68 -1t52 -1q46 0 60 6t14 23v106q0 49 -0.5 105t-1.5 117z" />
<glyph unicode="&#xbd;" horiz-adv-x="1882" d="M141 1194l6 57q91 25 172.5 50t157.5 51h29q-12 -85 -17.5 -202.5t-5.5 -279.5q0 -81 2.5 -139t8.5 -104l104 -15v-26q-46 3 -92 4.5t-90 1.5q-46 0 -90.5 -1.5t-89.5 -4.5v26l108 15q6 78 9 160.5t3 168.5q0 85 -1.5 164t-4.5 154zM436 -82l963 1544l47 -30l-961 -1543z M1155 53q77 23 149.5 68t141.5 112q63 63 96 131t33 138q0 92 -55 149.5t-142 57.5q-63 0 -100 -34.5t-37 -92.5q0 -8 3 -29q1 -7 1 -10l-10 -6l-66 24q26 93 108 148t196 55q107 0 170 -53t63 -142q0 -117 -100.5 -241t-276.5 -222l4 -8h62q175 0 248.5 6t89.5 19l18 98h33 l-1 -225q-76 3 -146.5 4.5t-135.5 1.5q-132 0 -205.5 -0.5t-139.5 -1.5z" />
<glyph unicode="&#xbe;" horiz-adv-x="1882" d="M72 668q0 10 35 42q19 18 30 29l14 -2q2 -60 45.5 -96.5t114.5 -36.5q89 0 149 59.5t60 147.5q0 79 -52.5 119.5t-156.5 40.5q-22 0 -34 -0.5t-23 -1.5v37q5 0 14 -1t13 -1q109 0 166 39.5t57 115.5q0 68 -43.5 111t-112.5 43q-56 0 -92.5 -29.5t-44.5 -79.5l-10 -8 l-49 51q45 54 102 79.5t131 25.5q106 0 167.5 -44t61.5 -118q0 -61 -41 -109.5t-118 -76.5v-4q95 -2 146.5 -45t51.5 -121q0 -58 -32 -110t-93 -93q-45 -30 -99 -45t-120 -15q-83 0 -160 35.5t-77 61.5zM436 -82l963 1544l47 -30l-961 -1543zM1145 246v45q62 65 174.5 189 t241.5 270h112q-2 -55 -3 -121t-1 -205v-107q27 0 59.5 1t98.5 3q0 -12 1 -36t1 -35h-115h-45q0 -56 2.5 -108.5t8.5 -100.5l94 -14l-1 -27q-42 3 -85 4.5t-86 1.5q-42 0 -83.5 -1.5t-82.5 -4.5v29l96 17q3 33 5.5 77t4.5 129h-125q-66 0 -134.5 -1.5t-137.5 -4.5zM1229 311 h119q28 0 68 -1t52 -1q46 0 60 6t14 23v106q0 49 -0.5 105t-1.5 117z" />
<glyph unicode="&#xbf;" horiz-adv-x="911" d="M133 248q0 153 192 367q23 27 35 40q83 96 106 140.5t23 87.5q0 14 -3.5 29.5t-12.5 33.5l143 72q8 -14 12.5 -27.5t4.5 -23.5q0 -65 -111 -206q-32 -40 -49 -63q-76 -100 -116 -196.5t-40 -182.5q0 -110 64.5 -185t157.5 -75q85 0 127.5 50t42.5 151v14h39 q4 -50 12 -104.5t20 -112.5q-95 -30 -185 -45.5t-169 -15.5q-139 0 -216 66.5t-77 185.5zM428 1231q0 48 32 78t83 30q52 0 84 -30.5t32 -79.5t-32.5 -80t-83.5 -31q-49 0 -82 32.5t-33 80.5z" />
<glyph unicode="&#xc0;" horiz-adv-x="1419" d="M-88 0v45q54 2 85.5 8.5t43.5 18.5q13 13 40 58.5t79 143.5q197 374 334 659.5t137 311.5q0 15 -8 23t-25 10l-100 10v41h12q151 -8 223 -8q28 0 58 1t87 3q130 -381 235 -679.5t151 -418.5q3 -9 9 -25q56 -149 193 -153v-47q-221 0 -328.5 -0.5t-196.5 -1.5l-1 45 l137 27q-24 91 -60 211t-86 270q-63 3 -135 4.5t-151 1.5q-66 0 -132.5 -1.5t-131.5 -4.5q-72 -158 -121 -277.5t-80 -209.5l142 -19l-3 -47h-12q-139 4 -203 4q-37 0 -78 -1t-114 -3zM375 1800h193l354 -358h-96zM416 621q81 -3 129 -4t88 -1q65 0 131.5 1.5t138.5 5.5 q-45 141 -96 286t-109 297h-10q-69 -142 -136.5 -287.5t-135.5 -297.5z" />
<glyph unicode="&#xc1;" horiz-adv-x="1419" d="M-88 0v45q54 2 85.5 8.5t43.5 18.5q13 13 40 58.5t79 143.5q197 374 334 659.5t137 311.5q0 15 -8 23t-25 10l-100 10v41h12q151 -8 223 -8q28 0 58 1t87 3q130 -381 235 -679.5t151 -418.5q3 -9 9 -25q56 -149 193 -153v-47q-221 0 -328.5 -0.5t-196.5 -1.5l-1 45 l137 27q-24 91 -60 211t-86 270q-63 3 -135 4.5t-151 1.5q-66 0 -132.5 -1.5t-131.5 -4.5q-72 -158 -121 -277.5t-80 -209.5l142 -19l-3 -47h-12q-139 4 -203 4q-37 0 -78 -1t-114 -3zM416 621q81 -3 129 -4t88 -1q65 0 131.5 1.5t138.5 5.5q-45 141 -96 286t-109 297h-10 q-69 -142 -136.5 -287.5t-135.5 -297.5zM518 1442l349 358h190l-450 -358h-89z" />
<glyph unicode="&#xc2;" horiz-adv-x="1419" d="M-88 0v45q54 2 85.5 8.5t43.5 18.5q13 13 40 58.5t79 143.5q197 374 334 659.5t137 311.5q0 15 -8 23t-25 10l-100 10v41h12q151 -8 223 -8q28 0 58 1t87 3q130 -381 235 -679.5t151 -418.5q3 -9 9 -25q56 -149 193 -153v-47q-221 0 -328.5 -0.5t-196.5 -1.5l-1 45 l137 27q-24 91 -60 211t-86 270q-63 3 -135 4.5t-151 1.5q-66 0 -132.5 -1.5t-131.5 -4.5q-72 -158 -121 -277.5t-80 -209.5l142 -19l-3 -47h-12q-139 4 -203 4q-37 0 -78 -1t-114 -3zM349 1442l360 360h70l294 -360h-104l-258 254l-274 -254h-88zM416 621q81 -3 129 -4 t88 -1q65 0 131.5 1.5t138.5 5.5q-45 141 -96 286t-109 297h-10q-69 -142 -136.5 -287.5t-135.5 -297.5z" />
<glyph unicode="&#xc3;" horiz-adv-x="1419" d="M-88 0v45q54 2 85.5 8.5t43.5 18.5q13 13 40 58.5t79 143.5q197 374 334 659.5t137 311.5q0 15 -8 23t-25 10l-100 10v41h12q151 -8 223 -8q28 0 58 1t87 3q130 -381 235 -679.5t151 -418.5q3 -9 9 -25q56 -149 193 -153v-47q-221 0 -328.5 -0.5t-196.5 -1.5l-1 45 l137 27q-24 91 -60 211t-86 270q-63 3 -135 4.5t-151 1.5q-66 0 -132.5 -1.5t-131.5 -4.5q-72 -158 -121 -277.5t-80 -209.5l142 -19l-3 -47h-12q-139 4 -203 4q-37 0 -78 -1t-114 -3zM303 1550q63 119 113.5 178.5t89.5 59.5q20 0 64.5 -10.5t101.5 -28.5q39 -12 108 -35 q162 -53 201 -53q35 0 67 27t66 86l39 -15l-7 -13q-128 -228 -191 -228q-30 0 -147 38q-63 21 -101 33q-82 27 -138 40t-83 13q-48 0 -82.5 -24.5t-61.5 -77.5zM416 621q81 -3 129 -4t88 -1q65 0 131.5 1.5t138.5 5.5q-45 141 -96 286t-109 297h-10q-69 -142 -136.5 -287.5 t-135.5 -297.5z" />
<glyph unicode="&#xc4;" horiz-adv-x="1419" d="M-88 0v45q54 2 85.5 8.5t43.5 18.5q13 13 40 58.5t79 143.5q197 374 334 659.5t137 311.5q0 15 -8 23t-25 10l-100 10v41h12q151 -8 223 -8q28 0 58 1t87 3q130 -381 235 -679.5t151 -418.5q3 -9 9 -25q56 -149 193 -153v-47q-221 0 -328.5 -0.5t-196.5 -1.5l-1 45 l137 27q-24 91 -60 211t-86 270q-63 3 -135 4.5t-151 1.5q-66 0 -132.5 -1.5t-131.5 -4.5q-72 -158 -121 -277.5t-80 -209.5l142 -19l-3 -47h-12q-139 4 -203 4q-37 0 -78 -1t-114 -3zM365 1718q0 49 33 81t84 32q49 0 81.5 -32t32.5 -81t-32 -80.5t-82 -31.5 q-51 0 -84 31.5t-33 80.5zM416 621q81 -3 129 -4t88 -1q65 0 131.5 1.5t138.5 5.5q-45 141 -96 286t-109 297h-10q-69 -142 -136.5 -287.5t-135.5 -297.5zM822 1718q0 50 31.5 81.5t82.5 31.5q50 0 83.5 -32.5t33.5 -80.5q0 -49 -32.5 -80.5t-84.5 -31.5q-50 0 -82 31.5 t-32 80.5z" />
<glyph unicode="&#xc5;" horiz-adv-x="1419" d="M-88 0v45q54 2 85.5 8.5t43.5 18.5q13 13 40 58.5t79 143.5q197 374 334 659.5t137 311.5q0 15 -8 23t-25 10l-100 10v41h12q151 -8 223 -8q28 0 58 1t87 3q130 -381 235 -679.5t151 -418.5q3 -9 9 -25q56 -149 193 -153v-47q-221 0 -328.5 -0.5t-196.5 -1.5l-1 45 l137 27q-24 91 -60 211t-86 270q-63 3 -135 4.5t-151 1.5q-66 0 -132.5 -1.5t-131.5 -4.5q-72 -158 -121 -277.5t-80 -209.5l142 -19l-3 -47h-12q-139 4 -203 4q-37 0 -78 -1t-114 -3zM416 621q81 -3 129 -4t88 -1q64 0 131 1.5t141 5.5q-49 148 -100.5 293.5t-106.5 289.5 h-10q-69 -142 -136.5 -287.5t-135.5 -297.5zM512 1657q0 83 56 138.5t139 55.5q84 0 140 -54.5t56 -135.5q0 -82 -56 -138.5t-138 -56.5q-84 0 -140.5 55t-56.5 136zM586 1659q0 -53 35.5 -90t85.5 -37q51 0 86.5 37t35.5 90q0 54 -34.5 90.5t-85.5 36.5q-52 0 -87.5 -37 t-35.5 -90z" />
<glyph unicode="&#xc6;" horiz-adv-x="1894" d="M-33 47l88 19q105 24 739 1007l126 195l-129 10v47q54 -1 149 -2q181 -2 236 -2q151 0 500 7q38 1 57 1q0 -30 1.5 -100.5t4.5 -181.5h-49l-21 88q-16 70 -93.5 97.5t-287.5 27.5h-100q-6 -108 -9 -216.5t-3 -218.5v-86h69q179 0 237 20t64 72l10 72h41q-3 -46 -4.5 -94 t-1.5 -96q0 -47 1.5 -95t4.5 -98h-41l-18 80q-18 75 -338 83q-16 1 -24 1q0 -27 -1 -80.5t-1 -79.5q0 -103 3.5 -212.5t10.5 -233.5h72q254 0 362.5 31.5t134.5 107.5l47 133l45 -4q-10 -83 -19 -171t-18 -179q-185 2 -431.5 5t-293.5 3q-46 0 -181 -2q-54 -1 -85 -2v47 l119 16q48 6 48 257q0 144 3 237q-80 3 -154.5 4.5t-146.5 1.5q-63 0 -94.5 -0.5t-56.5 -1.5q-100 -154 -167.5 -268t-115.5 -211l119 -35l-1 -47q-46 3 -95.5 4.5t-100.5 1.5t-103.5 -1.5t-106.5 -4.5zM586 633q30 0 94 -1t98 -1q33 0 104.5 1t108.5 1v612h-12 q-49 -76 -135 -213q-193 -304 -258 -399z" />
<glyph unicode="&#xc7;" horiz-adv-x="1313" d="M72 635q0 336 210 532.5t568 196.5q64 0 144.5 -11.5t176.5 -33.5l25 31l45 -13q-22 -91 -36 -165t-23 -146h-45l-11 101q-7 63 -111.5 119.5t-232.5 56.5q-228 0 -360.5 -153.5t-132.5 -416.5q0 -306 157 -489t418 -183q97 0 182.5 28.5t159.5 84.5l23 -45 q-110 -77 -232.5 -116.5t-255.5 -39.5q-310 0 -489.5 177.5t-179.5 484.5zM514 -141q0 10 6 18t19 19l135 104h64l-53 -71q-2 -2 -4 -5q-11 -14 -11 -20q0 -15 22 -37q3 -3 5 -4l84 -84q20 -21 31.5 -44.5t11.5 -45.5q0 -41 -68 -86.5t-211 -100.5l-26 33q68 40 101.5 72.5 t33.5 58.5q0 23 -13 45t-63 72l-22 22q-42 39 -42 54z" />
<glyph unicode="&#xc8;" horiz-adv-x="1149" d="M74 0v45l110 16q16 3 27 9t14 13q9 25 14 195t5 484q0 201 -5.5 325.5t-15.5 153.5q-4 9 -13.5 14.5t-25.5 8.5l-110 14v47q90 -1 223.5 -2.5t165.5 -1.5q86 0 262.5 2t267.5 2q0 -64 1.5 -134.5t4.5 -143.5h-49l-20 88q-16 70 -93.5 97.5t-287.5 27.5h-100 q-7 -104 -10 -226t-3 -295h86q161 0 219.5 20.5t65.5 72.5l10 71h41q-3 -42 -4.5 -84.5t-1.5 -87.5q0 -52 1.5 -104t4.5 -106l-41 -1l-18 80q-18 75 -339 83q-16 1 -24 1q0 -26 -1 -76t-1 -73q0 -117 3.5 -231.5t11.5 -225.5h71q254 0 362 31.5t136 107.5l45 133l45 -4 q-13 -107 -32 -323l-3 -27q-238 4 -425 6t-255 2q-109 0 -179 -1t-140 -3zM239 1800h193l354 -358h-96z" />
<glyph unicode="&#xc9;" horiz-adv-x="1149" d="M74 0v45l110 16q16 3 27 9t14 13q9 25 14 195t5 484q0 201 -5.5 325.5t-15.5 153.5q-4 9 -13.5 14.5t-25.5 8.5l-110 14v47q90 -1 223.5 -2.5t165.5 -1.5q86 0 262.5 2t267.5 2q0 -64 1.5 -134.5t4.5 -143.5h-49l-20 88q-16 70 -93.5 97.5t-287.5 27.5h-100 q-7 -104 -10 -226t-3 -295h86q161 0 219.5 20.5t65.5 72.5l10 71h41q-3 -42 -4.5 -84.5t-1.5 -87.5q0 -52 1.5 -104t4.5 -106l-41 -1l-18 80q-18 75 -339 83q-16 1 -24 1q0 -26 -1 -76t-1 -73q0 -117 3.5 -231.5t11.5 -225.5h71q254 0 362 31.5t136 107.5l45 133l45 -4 q-13 -107 -32 -323l-3 -27q-238 4 -425 6t-255 2q-109 0 -179 -1t-140 -3zM382 1442l349 358h190l-450 -358h-89z" />
<glyph unicode="&#xca;" horiz-adv-x="1149" d="M74 0v45l110 16q16 3 27 9t14 13q9 25 14 195t5 484q0 201 -5.5 325.5t-15.5 153.5q-4 9 -13.5 14.5t-25.5 8.5l-110 14v47q90 -1 223.5 -2.5t165.5 -1.5q86 0 262.5 2t267.5 2q0 -64 1.5 -134.5t4.5 -143.5h-49l-20 88q-16 70 -93.5 97.5t-287.5 27.5h-100 q-7 -104 -10 -226t-3 -295h86q161 0 219.5 20.5t65.5 72.5l10 71h41q-3 -42 -4.5 -84.5t-1.5 -87.5q0 -52 1.5 -104t4.5 -106l-41 -1l-18 80q-18 75 -339 83q-16 1 -24 1q0 -26 -1 -76t-1 -73q0 -117 3.5 -231.5t11.5 -225.5h71q254 0 362 31.5t136 107.5l45 133l45 -4 q-13 -107 -32 -323l-3 -27q-238 4 -425 6t-255 2q-109 0 -179 -1t-140 -3zM213 1442l360 360h70l294 -360h-104l-258 254l-274 -254h-88z" />
<glyph unicode="&#xcb;" horiz-adv-x="1149" d="M74 0v45l110 16q16 3 27 9t14 13q9 25 14 195t5 484q0 201 -5.5 325.5t-15.5 153.5q-4 9 -13.5 14.5t-25.5 8.5l-110 14v47q90 -1 223.5 -2.5t165.5 -1.5q86 0 262.5 2t267.5 2q0 -64 1.5 -134.5t4.5 -143.5h-49l-20 88q-16 70 -93.5 97.5t-287.5 27.5h-100 q-7 -104 -10 -226t-3 -295h86q161 0 219.5 20.5t65.5 72.5l10 71h41q-3 -42 -4.5 -84.5t-1.5 -87.5q0 -52 1.5 -104t4.5 -106l-41 -1l-18 80q-18 75 -339 83q-16 1 -24 1q0 -26 -1 -76t-1 -73q0 -117 3.5 -231.5t11.5 -225.5h71q254 0 362 31.5t136 107.5l45 133l45 -4 q-13 -107 -32 -323l-3 -27q-238 4 -425 6t-255 2q-109 0 -179 -1t-140 -3zM229 1718q0 49 33 81t84 32q49 0 81.5 -32t32.5 -81t-32 -80.5t-82 -31.5q-51 0 -84 31.5t-33 80.5zM686 1718q0 50 31.5 81.5t82.5 31.5q50 0 83.5 -32.5t33.5 -80.5q0 -49 -32.5 -80.5 t-84.5 -31.5q-50 0 -82 31.5t-32 80.5z" />
<glyph unicode="&#xcc;" horiz-adv-x="678" d="M4 1800h193l354 -358h-96zM74 0v45l112 16q18 4 27 8.5t12 11.5q10 28 14.5 161t4.5 424q0 290 -4.5 422.5t-14.5 159.5q-4 8 -13.5 13t-25.5 7l-112 14v45q44 0 132 -1t132 -1t133 1t133 1v-45l-112 -14q-16 -3 -26 -9t-13 -13q-10 -27 -14.5 -159.5t-4.5 -420.5 q0 -266 4.5 -411.5t14.5 -173.5q3 -7 13 -12.5t26 -7.5l112 -16v-45q-47 2 -102.5 3t-165.5 1q-109 0 -163 -1t-99 -3z" />
<glyph unicode="&#xcd;" horiz-adv-x="678" d="M74 0v45l112 16q18 4 27 8.5t12 11.5q10 28 14.5 161t4.5 424q0 290 -4.5 422.5t-14.5 159.5q-4 8 -13.5 13t-25.5 7l-112 14v45q44 0 132 -1t132 -1t133 1t133 1v-45l-112 -14q-16 -3 -26 -9t-13 -13q-10 -27 -14.5 -159.5t-4.5 -420.5q0 -266 4.5 -411.5t14.5 -173.5 q3 -7 13 -12.5t26 -7.5l112 -16v-45q-47 2 -102.5 3t-165.5 1q-109 0 -163 -1t-99 -3zM147 1442l349 358h190l-450 -358h-89z" />
<glyph unicode="&#xce;" horiz-adv-x="678" d="M-22 1442l360 360h70l294 -360h-104l-258 254l-274 -254h-88zM74 0v45l112 16q18 4 27 8.5t12 11.5q10 28 14.5 161t4.5 424q0 290 -4.5 422.5t-14.5 159.5q-4 8 -13.5 13t-25.5 7l-112 14v45q44 0 132 -1t132 -1t133 1t133 1v-45l-112 -14q-16 -3 -26 -9t-13 -13 q-10 -27 -14.5 -159.5t-4.5 -420.5q0 -266 4.5 -411.5t14.5 -173.5q3 -7 13 -12.5t26 -7.5l112 -16v-45q-47 2 -102.5 3t-165.5 1q-109 0 -163 -1t-99 -3z" />
<glyph unicode="&#xcf;" horiz-adv-x="678" d="M-6 1718q0 49 33 81t84 32q49 0 81.5 -32t32.5 -81t-32 -80.5t-82 -31.5q-51 0 -84 31.5t-33 80.5zM74 0v45l112 16q18 4 27 8.5t12 11.5q10 28 14.5 161t4.5 424q0 290 -4.5 422.5t-14.5 159.5q-4 8 -13.5 13t-25.5 7l-112 14v45q44 0 132 -1t132 -1t133 1t133 1v-45 l-112 -14q-16 -3 -26 -9t-13 -13q-10 -27 -14.5 -159.5t-4.5 -420.5q0 -266 4.5 -411.5t14.5 -173.5q3 -7 13 -12.5t26 -7.5l112 -16v-45q-47 2 -102.5 3t-165.5 1q-109 0 -163 -1t-99 -3zM451 1718q0 50 31.5 81.5t82.5 31.5q50 0 83.5 -32.5t33.5 -80.5q0 -49 -32.5 -80.5 t-84.5 -31.5q-50 0 -82 31.5t-32 80.5z" />
<glyph unicode="&#xd0;" horiz-adv-x="1532" d="M6 735v66h236v106v178q0 108 -12.5 142.5t-45.5 38.5l-110 14v45q40 -1 86 -1.5t131 -0.5q154 0 335.5 5t207.5 5q316 0 469 -150.5t153 -463.5q0 -345 -216.5 -533t-612.5 -188q-40 0 -158.5 3t-198.5 3q-58 0 -184 -4h-12v45l110 16q36 6 48 50.5t12 212.5v79 q0 100 -1 210.5t-1 121.5h-236zM434 573q0 -170 4.5 -295t10.5 -158q5 -23 74 -38.5t177 -15.5q270 0 398.5 138.5t128.5 428.5q0 324 -139.5 480.5t-430.5 156.5q-88 0 -142 -12t-62 -33q-9 -21 -14 -127t-5 -297h246v-66h-246v-162z" />
<glyph unicode="&#xd1;" horiz-adv-x="1577" d="M61 0v47l120 17q15 1 25 6.5t13 13.5q11 34 19 279.5t8 607.5q0 74 -2 147t-7 146q-23 4 -52 7.5t-87 9.5v46q31 0 87.5 -1t82.5 -1q28 0 78.5 1t73.5 1q217 -275 439 -535.5t450 -504.5q-7 316 -21 576.5t-26 362.5q-4 21 -13.5 29t-30.5 11l-131 16v45h7q149 -4 221 -4 q40 0 88.5 1t136.5 3v-45l-112 -16q-16 -2 -26 -7t-13 -13q-9 -27 -16 -187t-7 -377q0 -311 4 -473.5t12 -216.5l-108 4q-314 393 -542 655.5t-425 460.5q11 -433 21.5 -686.5t21.5 -324.5q4 -22 12 -29t32 -11l116 -14v-46q-40 1 -87 2t-140 1q-92 0 -137.5 -1t-84.5 -3z M380 1550q63 119 113.5 178.5t89.5 59.5q20 0 64.5 -10.5t101.5 -28.5q39 -12 108 -35q162 -53 201 -53q35 0 67 27t66 86l39 -15l-7 -13q-128 -228 -191 -228q-30 0 -147 38q-63 21 -101 33q-82 27 -138 40t-83 13q-48 0 -82.5 -24.5t-61.5 -77.5z" />
<glyph unicode="&#xd2;" horiz-adv-x="1522" d="M74 604q0 123 30.5 232t90.5 200q100 149 272 232.5t381 83.5q286 0 441 -160.5t155 -458.5q0 -360 -214.5 -560t-600.5 -200q-251 0 -403 172.5t-152 458.5zM279 721q0 -296 146 -482t374 -186q198 0 318 145.5t120 387.5q0 309 -142.5 500.5t-367.5 191.5 q-205 0 -326.5 -150.5t-121.5 -406.5zM426 1800h193l354 -358h-96z" />
<glyph unicode="&#xd3;" horiz-adv-x="1522" d="M74 604q0 123 30.5 232t90.5 200q100 149 272 232.5t381 83.5q286 0 441 -160.5t155 -458.5q0 -360 -214.5 -560t-600.5 -200q-251 0 -403 172.5t-152 458.5zM279 721q0 -296 146 -482t374 -186q198 0 318 145.5t120 387.5q0 309 -142.5 500.5t-367.5 191.5 q-205 0 -326.5 -150.5t-121.5 -406.5zM569 1442l349 358h190l-450 -358h-89z" />
<glyph unicode="&#xd4;" horiz-adv-x="1522" d="M74 604q0 123 30.5 232t90.5 200q100 149 272 232.5t381 83.5q286 0 441 -160.5t155 -458.5q0 -360 -214.5 -560t-600.5 -200q-251 0 -403 172.5t-152 458.5zM279 721q0 -296 146 -482t374 -186q198 0 318 145.5t120 387.5q0 309 -142.5 500.5t-367.5 191.5 q-205 0 -326.5 -150.5t-121.5 -406.5zM400 1442l360 360h70l294 -360h-104l-258 254l-274 -254h-88z" />
<glyph unicode="&#xd5;" horiz-adv-x="1522" d="M74 604q0 123 30.5 232t90.5 200q100 149 272 232.5t381 83.5q286 0 441 -160.5t155 -458.5q0 -360 -214.5 -560t-600.5 -200q-251 0 -403 172.5t-152 458.5zM279 721q0 -296 146 -482t374 -186q198 0 318 145.5t120 387.5q0 309 -142.5 500.5t-367.5 191.5 q-205 0 -326.5 -150.5t-121.5 -406.5zM354 1550q63 119 113.5 178.5t89.5 59.5q20 0 64.5 -10.5t101.5 -28.5q39 -12 108 -35q162 -53 201 -53q35 0 67 27t66 86l39 -15l-7 -13q-128 -228 -191 -228q-30 0 -147 38q-63 21 -101 33q-82 27 -138 40t-83 13q-48 0 -82.5 -24.5 t-61.5 -77.5z" />
<glyph unicode="&#xd6;" horiz-adv-x="1522" d="M74 604q0 123 30.5 232t90.5 200q100 149 272 232.5t381 83.5q286 0 441 -160.5t155 -458.5q0 -360 -214.5 -560t-600.5 -200q-251 0 -403 172.5t-152 458.5zM279 721q0 -296 146 -482t374 -186q198 0 318 145.5t120 387.5q0 309 -142.5 500.5t-367.5 191.5 q-205 0 -326.5 -150.5t-121.5 -406.5zM416 1718q0 49 33 81t84 32q49 0 81.5 -32t32.5 -81t-32 -80.5t-82 -31.5q-51 0 -84 31.5t-33 80.5zM873 1718q0 50 31.5 81.5t82.5 31.5q50 0 83.5 -32.5t33.5 -80.5q0 -49 -32.5 -80.5t-84.5 -31.5q-50 0 -82 31.5t-32 80.5z" />
<glyph unicode="&#xd7;" horiz-adv-x="1706" d="M293 141l469 469l-469 469l98 99l469 -469l469 469l98 -99l-469 -469l469 -469l-98 -96l-469 467l-469 -467z" />
<glyph unicode="&#xd8;" horiz-adv-x="1522" d="M76 610q0 345 214.5 549.5t577.5 204.5q68 0 132.5 -14t127.5 -41l113 170l49 -21l-108 -170q132 -87 197 -227t65 -340q0 -153 -42 -277t-126 -221q-103 -120 -267 -187t-358 -67q-68 0 -138 16.5t-146 49.5l-107 -174l-49 26l108 174q-120 92 -181.5 230.5t-61.5 318.5 zM279 717q0 -147 36.5 -271t108.5 -221l620 949q-60 61 -132.5 91.5t-159.5 30.5q-214 0 -343.5 -158t-129.5 -421zM465 174q64 -64 141 -96.5t166 -32.5q70 0 134.5 21.5t129.5 66.5q92 63 147.5 187.5t55.5 271.5q0 160 -39 294t-115 238z" />
<glyph unicode="&#xd9;" horiz-adv-x="1616" d="M45 1282v47h18q183 -4 265 -4q49 0 104.5 1t148.5 3l1 -47l-150 -23q-7 -114 -10.5 -235t-3.5 -248q0 -221 11 -326t38 -163q45 -99 137 -158t201 -59q118 0 216.5 58t154.5 161v18q4 243 4 355q0 190 -3.5 337t-11.5 260l-147 23v47q98 -2 153 -3t103 -1q88 0 274 4h6 v-47l-167 -22q-8 -108 -11.5 -231t-3.5 -267q0 -190 4.5 -363.5t14.5 -328.5l174 -23l-1 -47q-73 3 -109 3.5t-66 0.5q-65 0 -119 -2t-101 -6v164q-123 -97 -243 -141t-260 -44q-130 0 -219 41t-150 127q-40 58 -58 156.5t-18 278.5q0 21 1 100.5t1 136.5q0 109 -3 220 t-9 225zM473 1800h193l354 -358h-96z" />
<glyph unicode="&#xda;" horiz-adv-x="1616" d="M45 1282v47h18q183 -4 265 -4q49 0 104.5 1t148.5 3l1 -47l-150 -23q-7 -114 -10.5 -235t-3.5 -248q0 -221 11 -326t38 -163q45 -99 137 -158t201 -59q118 0 216.5 58t154.5 161v18q4 243 4 355q0 190 -3.5 337t-11.5 260l-147 23v47q98 -2 153 -3t103 -1q88 0 274 4h6 v-47l-167 -22q-8 -108 -11.5 -231t-3.5 -267q0 -190 4.5 -363.5t14.5 -328.5l174 -23l-1 -47q-73 3 -109 3.5t-66 0.5q-65 0 -119 -2t-101 -6v164q-123 -97 -243 -141t-260 -44q-130 0 -219 41t-150 127q-40 58 -58 156.5t-18 278.5q0 21 1 100.5t1 136.5q0 109 -3 220 t-9 225zM616 1442l349 358h190l-450 -358h-89z" />
<glyph unicode="&#xdb;" horiz-adv-x="1616" d="M45 1282v47h18q183 -4 265 -4q49 0 104.5 1t148.5 3l1 -47l-150 -23q-7 -114 -10.5 -235t-3.5 -248q0 -221 11 -326t38 -163q45 -99 137 -158t201 -59q118 0 216.5 58t154.5 161v18q4 243 4 355q0 190 -3.5 337t-11.5 260l-147 23v47q98 -2 153 -3t103 -1q88 0 274 4h6 v-47l-167 -22q-8 -108 -11.5 -231t-3.5 -267q0 -190 4.5 -363.5t14.5 -328.5l174 -23l-1 -47q-73 3 -109 3.5t-66 0.5q-65 0 -119 -2t-101 -6v164q-123 -97 -243 -141t-260 -44q-130 0 -219 41t-150 127q-40 58 -58 156.5t-18 278.5q0 21 1 100.5t1 136.5q0 109 -3 220 t-9 225zM447 1442l360 360h70l294 -360h-104l-258 254l-274 -254h-88z" />
<glyph unicode="&#xdc;" horiz-adv-x="1616" d="M45 1282v47h18q183 -4 265 -4q49 0 104.5 1t148.5 3l1 -47l-150 -23q-7 -114 -10.5 -235t-3.5 -248q0 -221 11 -326t38 -163q45 -99 137 -158t201 -59q118 0 216.5 58t154.5 161v18q4 243 4 355q0 190 -3.5 337t-11.5 260l-147 23v47q98 -2 153 -3t103 -1q88 0 274 4h6 v-47l-167 -22q-8 -108 -11.5 -231t-3.5 -267q0 -190 4.5 -363.5t14.5 -328.5l174 -23l-1 -47q-73 3 -109 3.5t-66 0.5q-65 0 -119 -2t-101 -6v164q-123 -97 -243 -141t-260 -44q-130 0 -219 41t-150 127q-40 58 -58 156.5t-18 278.5q0 21 1 100.5t1 136.5q0 109 -3 220 t-9 225zM463 1718q0 49 33 81t84 32q49 0 81.5 -32t32.5 -81t-32 -80.5t-82 -31.5q-51 0 -84 31.5t-33 80.5zM920 1718q0 50 31.5 81.5t82.5 31.5q50 0 83.5 -32.5t33.5 -80.5q0 -49 -32.5 -80.5t-84.5 -31.5q-50 0 -82 31.5t-32 80.5z" />
<glyph unicode="&#xdd;" horiz-adv-x="1341" d="M-18 1280v47q100 -2 156 -3t104 -1q90 0 276 4h6v-47l-137 -23q76 -167 158 -313t174 -276q125 179 221.5 330.5t153.5 258.5l-133 23v47q72 -2 113.5 -3t76.5 -1q64 0 200 4h7v-47l-123 -23q-83 -85 -191.5 -235t-273.5 -410q-3 -67 -4.5 -123.5t-1.5 -103.5 q0 -62 2.5 -139t7.5 -176l174 -23v-47q-49 2 -107.5 3t-172.5 1q-116 0 -173 -1t-106 -3v47l174 23q4 49 6 104.5t2 120.5q0 71 -2 134.5t-6 121.5l-207 352q-16 28 -46 80q-124 210 -175 274zM479 1442l349 358h190l-450 -358h-89z" />
<glyph unicode="&#xde;" horiz-adv-x="1112" d="M61 1290l1 43q64 -3 129 -4.5t128 -1.5q82 0 151.5 2t131.5 6v-43l-158 -24l-8 -148q97 6 173.5 9.5t131.5 3.5q184 0 269.5 -69t85.5 -216q0 -218 -154.5 -342.5t-427.5 -124.5q-25 0 -42.5 0.5t-34.5 1.5l-1 -53q0 -57 2.5 -120t8.5 -136l188 -25v-49q-49 2 -106.5 3 t-172.5 1q-112 0 -168.5 -1t-103.5 -3v49l143 27q9 93 13 243.5t4 452.5q0 182 -6 295t-19 197zM432 922q0 -176 1.5 -295t4.5 -180q28 -5 56.5 -7t58.5 -2q169 0 246.5 88t77.5 281q0 135 -72.5 198.5t-224.5 63.5q-49 0 -80.5 -1.5t-62.5 -4.5l-1 -6q-4 -92 -4 -135z" />
<glyph unicode="&#xdf;" horiz-adv-x="1264" d="M31 911v39l155 8q17 218 172.5 353t389.5 135q146 0 215 -63.5t69 -196.5q0 -39 -7 -84t-21 -98q-135 -27 -199 -78.5t-64 -132.5q0 -65 40.5 -113t121.5 -80q15 -6 41 -16q270 -105 270 -265q0 -144 -127.5 -241.5t-322.5 -97.5q-64 0 -117.5 20.5t-95.5 60.5l88 84 q12 -52 53.5 -82t102.5 -30q91 0 153 57.5t62 142.5q0 34 -9 64t-26 53q-30 42 -171 101q-48 20 -75 32q-74 35 -111.5 82.5t-37.5 108.5q0 59 31.5 118t90.5 111q20 17 60 47q137 105 137 215q0 105 -56 164.5t-155 59.5q-67 0 -125 -26.5t-102 -76.5q-43 -48 -61.5 -126.5 t-18.5 -229.5q0 -244 6 -459.5t19 -400.5l96 -21v-49q-43 2 -92.5 3t-145.5 1q-93 0 -138.5 -1t-82.5 -2v44l156 27v18q4 149 4 215q0 239 -4.5 376t-14.5 212q-52 10 -87.5 14t-65.5 4z" />
<glyph unicode="&#xe0;" horiz-adv-x="1098" d="M59 238q0 140 125 227.5t328 87.5q55 0 108.5 -5t103.5 -15q2 12 2.5 27t0.5 44q0 154 -60 226.5t-186 72.5q-101 0 -161.5 -63.5t-63.5 -171.5l-39 -6q-6 54 -14.5 108.5t-20.5 112.5q107 43 205.5 63.5t198.5 20.5q191 0 260 -63.5t69 -237.5q0 -51 -6 -179t-6 -206 q0 -79 3.5 -125t10.5 -65q8 -17 41 -27t99 -17l-1 -49q-75 1 -150.5 1.5t-186.5 0.5v102q-110 -62 -215.5 -92t-208.5 -30q-102 0 -169 73.5t-67 184.5zM213 1415h193l354 -358h-96zM270 285q0 -97 52 -151t145 -54q109 0 183.5 42.5t74.5 106.5v197q0 44 -46.5 60 t-168.5 16t-181 -53.5t-59 -163.5z" />
<glyph unicode="&#xe1;" horiz-adv-x="1098" d="M59 238q0 140 125 227.5t328 87.5q55 0 108.5 -5t103.5 -15q2 12 2.5 27t0.5 44q0 154 -60 226.5t-186 72.5q-101 0 -161.5 -63.5t-63.5 -171.5l-39 -6q-6 54 -14.5 108.5t-20.5 112.5q107 43 205.5 63.5t198.5 20.5q191 0 260 -63.5t69 -237.5q0 -51 -6 -179t-6 -206 q0 -79 3.5 -125t10.5 -65q8 -17 41 -27t99 -17l-1 -49q-75 1 -150.5 1.5t-186.5 0.5v102q-110 -62 -215.5 -92t-208.5 -30q-102 0 -169 73.5t-67 184.5zM270 285q0 -97 52 -151t145 -54q109 0 183.5 42.5t74.5 106.5v197q0 44 -46.5 60t-168.5 16t-181 -53.5t-59 -163.5z M356 1057l349 358h190l-450 -358h-89z" />
<glyph unicode="&#xe2;" horiz-adv-x="1098" d="M59 238q0 140 125 227.5t328 87.5q55 0 108.5 -5t103.5 -15q2 12 2.5 27t0.5 44q0 154 -60 226.5t-186 72.5q-101 0 -161.5 -63.5t-63.5 -171.5l-39 -6q-6 54 -14.5 108.5t-20.5 112.5q107 43 205.5 63.5t198.5 20.5q191 0 260 -63.5t69 -237.5q0 -51 -6 -179t-6 -206 q0 -79 3.5 -125t10.5 -65q8 -17 41 -27t99 -17l-1 -49q-75 1 -150.5 1.5t-186.5 0.5v102q-110 -62 -215.5 -92t-208.5 -30q-102 0 -169 73.5t-67 184.5zM187 1057l360 360h70l294 -360h-104l-258 254l-274 -254h-88zM270 285q0 -97 52 -151t145 -54q109 0 183.5 42.5 t74.5 106.5v197q0 44 -46.5 60t-168.5 16t-181 -53.5t-59 -163.5z" />
<glyph unicode="&#xe3;" horiz-adv-x="1098" d="M59 238q0 140 125 227.5t328 87.5q55 0 108.5 -5t103.5 -15q2 12 2.5 27t0.5 44q0 154 -60 226.5t-186 72.5q-101 0 -161.5 -63.5t-63.5 -171.5l-39 -6q-6 54 -14.5 108.5t-20.5 112.5q107 43 205.5 63.5t198.5 20.5q191 0 260 -63.5t69 -237.5q0 -51 -6 -179t-6 -206 q0 -79 3.5 -125t10.5 -65q8 -17 41 -27t99 -17l-1 -49q-75 1 -150.5 1.5t-186.5 0.5v102q-110 -62 -215.5 -92t-208.5 -30q-102 0 -169 73.5t-67 184.5zM141 1165q63 119 113.5 178.5t89.5 59.5q20 0 64.5 -10.5t101.5 -28.5q39 -12 108 -35q162 -53 201 -53q35 0 67 27 t66 86l39 -15l-7 -13q-128 -228 -191 -228q-30 0 -147 38q-63 21 -101 33q-82 27 -138 40t-83 13q-48 0 -82.5 -24.5t-61.5 -77.5zM270 285q0 -97 52 -151t145 -54q109 0 183.5 42.5t74.5 106.5v197q0 44 -46.5 60t-168.5 16t-181 -53.5t-59 -163.5z" />
<glyph unicode="&#xe4;" horiz-adv-x="1098" d="M59 238q0 140 125 227.5t328 87.5q55 0 108.5 -5t103.5 -15q2 12 2.5 27t0.5 44q0 154 -60 226.5t-186 72.5q-101 0 -161.5 -63.5t-63.5 -171.5l-39 -6q-6 54 -14.5 108.5t-20.5 112.5q107 43 205.5 63.5t198.5 20.5q191 0 260 -63.5t69 -237.5q0 -51 -6 -179t-6 -206 q0 -79 3.5 -125t10.5 -65q8 -17 41 -27t99 -17l-1 -49q-75 1 -150.5 1.5t-186.5 0.5v102q-110 -62 -215.5 -92t-208.5 -30q-102 0 -169 73.5t-67 184.5zM203 1333q0 49 33 81t84 32q49 0 81.5 -32t32.5 -81t-32 -80.5t-82 -31.5q-51 0 -84 31.5t-33 80.5zM270 285 q0 -97 52 -151t145 -54q109 0 183.5 42.5t74.5 106.5v197q0 44 -46.5 60t-168.5 16t-181 -53.5t-59 -163.5zM660 1333q0 50 31.5 81.5t82.5 31.5q50 0 83.5 -32.5t33.5 -80.5q0 -49 -32.5 -80.5t-84.5 -31.5q-50 0 -82 31.5t-32 80.5z" />
<glyph unicode="&#xe5;" horiz-adv-x="1098" d="M59 238q0 140 125 227.5t328 87.5q55 0 108.5 -5t103.5 -15q2 12 2.5 27t0.5 44q0 154 -60 226.5t-186 72.5q-101 0 -161.5 -63.5t-63.5 -171.5l-39 -6q-6 54 -14.5 108.5t-20.5 112.5q107 43 205.5 63.5t198.5 20.5q191 0 260 -63.5t69 -237.5q0 -51 -6 -180.5 t-6 -209.5q0 -77 3.5 -122.5t10.5 -62.5q6 -16 36 -25.5t104 -18.5l-1 -49q-109 1 -194 3t-143 3v98q-110 -62 -215.5 -92t-208.5 -30q-102 0 -169 73.5t-67 184.5zM270 285q0 -97 52 -151t145 -54q109 0 183.5 42.5t74.5 106.5v197q0 44 -46.5 60t-168.5 16t-181 -53.5 t-59 -163.5zM348 1317q0 83 55.5 137.5t139.5 54.5t140 -54.5t56 -135.5q0 -82 -56 -138.5t-138 -56.5q-84 0 -140.5 56t-56.5 137zM422 1319q0 -53 35.5 -91t85.5 -38q51 0 87 37.5t36 91.5q0 53 -35 89t-86 36q-52 0 -87.5 -36t-35.5 -89z" />
<glyph unicode="&#xe6;" horiz-adv-x="1550" d="M49 219q0 170 158 251t505 87q2 10 2.5 21.5t0.5 33.5q0 145 -63 218t-187 73q-97 0 -158.5 -68.5t-62.5 -176.5l-39 -6q-6 55 -14.5 110t-20.5 110q127 48 233.5 71.5t194.5 23.5q104 0 170.5 -28.5t95.5 -84.5q71 56 155.5 84.5t184.5 28.5q140 0 221.5 -73t81.5 -196 q0 -9 -5 -14.5t-23 -11.5l-535 -150q-21 -6 -27.5 -13.5t-7.5 -25.5q0 -181 96.5 -301.5t241.5 -120.5q57 0 111 22.5t112 70.5l7 -50q-84 -65 -182 -100t-197 -35t-176.5 40.5t-141.5 125.5q-95 -77 -205.5 -116t-232.5 -39q-141 0 -217 62t-76 177zM258 268q0 -97 53 -153 t146 -56q107 0 181.5 43.5t74.5 108.5v281l-8 5q-229 -2 -338 -58t-109 -171zM895 623q0 -26 8.5 -39t24.5 -13q6 0 8.5 0.5t6.5 2.5l290 92q18 5 32.5 20t14.5 27q0 74 -55.5 132t-128.5 58q-96 0 -148.5 -73.5t-52.5 -206.5z" />
<glyph unicode="&#xe7;" horiz-adv-x="922" d="M61 453q0 234 139 376t367 142q55 0 131.5 -11.5t173.5 -33.5l-61 -254h-43v16q0 103 -66 163t-178 60q-129 0 -189.5 -96t-60.5 -303t84.5 -328t227.5 -121q49 0 113.5 22.5t146.5 68.5v-50q-98 -66 -190 -97.5t-189 -31.5q-199 0 -302.5 121.5t-103.5 356.5zM309 -141 q0 10 6 18t19 19l135 104h64l-53 -71q-2 -2 -4 -5q-11 -14 -11 -20q0 -15 22 -37q3 -3 5 -4l84 -84q20 -21 31.5 -44.5t11.5 -45.5q0 -41 -68 -86.5t-211 -100.5l-26 33q68 40 101.5 72.5t33.5 58.5q0 23 -13 45t-63 72l-22 22q-42 39 -42 54z" />
<glyph unicode="&#xe8;" horiz-adv-x="938" d="M90 446q0 245 128 383t353 138q141 0 223.5 -75t90.5 -210l-586 -178q10 -205 101.5 -324t238.5 -119q56 0 110 22.5t113 70.5l6 -50q-83 -65 -182.5 -100t-202.5 -35q-183 0 -288 127t-105 350zM133 1415h193l354 -358h-96zM289 629q0 -28 8 -44t22 -16q6 0 8 0.5t4 1.5 l294 93q24 8 36.5 20.5t12.5 30.5q0 73 -56 130.5t-131 57.5q-93 0 -145.5 -72.5t-52.5 -201.5z" />
<glyph unicode="&#xe9;" horiz-adv-x="938" d="M90 446q0 245 128 383t353 138q141 0 223.5 -75t90.5 -210l-586 -178q10 -205 101.5 -324t238.5 -119q56 0 110 22.5t113 70.5l6 -50q-83 -65 -182.5 -100t-202.5 -35q-183 0 -288 127t-105 350zM276 1057l349 358h190l-450 -358h-89zM289 629q0 -28 8 -44t22 -16 q6 0 8 0.5t4 1.5l294 93q24 8 36.5 20.5t12.5 30.5q0 73 -56 130.5t-131 57.5q-93 0 -145.5 -72.5t-52.5 -201.5z" />
<glyph unicode="&#xea;" horiz-adv-x="938" d="M90 446q0 245 128 383t353 138q141 0 223.5 -75t90.5 -210l-586 -178q10 -205 101.5 -324t238.5 -119q56 0 110 22.5t113 70.5l6 -50q-83 -65 -182.5 -100t-202.5 -35q-183 0 -288 127t-105 350zM107 1057l360 360h70l294 -360h-104l-258 254l-274 -254h-88zM289 629 q0 -28 8 -44t22 -16q6 0 8 0.5t4 1.5l294 93q24 8 36.5 20.5t12.5 30.5q0 73 -56 130.5t-131 57.5q-93 0 -145.5 -72.5t-52.5 -201.5z" />
<glyph unicode="&#xeb;" horiz-adv-x="938" d="M90 446q0 245 128 383t353 138q141 0 223.5 -75t90.5 -210l-586 -178q10 -205 101.5 -324t238.5 -119q56 0 110 22.5t113 70.5l6 -50q-83 -65 -182.5 -100t-202.5 -35q-183 0 -288 127t-105 350zM123 1333q0 49 33 81t84 32q49 0 81.5 -32t32.5 -81t-32 -80.5t-82 -31.5 q-51 0 -84 31.5t-33 80.5zM289 629q0 -28 8 -44t22 -16q6 0 8 0.5t4 1.5l294 93q24 8 36.5 20.5t12.5 30.5q0 73 -56 130.5t-131 57.5q-93 0 -145.5 -72.5t-52.5 -201.5zM580 1333q0 50 31.5 81.5t82.5 31.5q50 0 83.5 -32.5t33.5 -80.5q0 -49 -32.5 -80.5t-84.5 -31.5 q-50 0 -82 31.5t-32 80.5z" />
<glyph unicode="&#xec;" horiz-adv-x="588" d="M-41 1415h193l354 -358h-96zM41 915v46q4 -1 12 -1q139 -4 203 -4q31 0 66 1t92 3q-8 -90 -11.5 -196t-3.5 -234q0 -48 1 -153t1 -162q0 -10 -1 -39.5t-1 -48.5q0 -30 12 -41.5t50 -19.5l100 -21v-45q-42 2 -93 3t-157 1q-105 0 -159.5 -1t-102.5 -3v45l101 21 q21 4 35.5 14.5t17.5 22.5q4 21 6 103.5t2 248.5q0 244 -2.5 313t-7.5 88q-3 12 -21.5 24t-37.5 15z" />
<glyph unicode="&#xed;" horiz-adv-x="588" d="M41 915v46q4 -1 12 -1q139 -4 203 -4q31 0 66 1t92 3q-8 -90 -11.5 -196t-3.5 -234q0 -48 1 -153t1 -162q0 -10 -1 -39.5t-1 -48.5q0 -30 12 -41.5t50 -19.5l100 -21v-45q-42 2 -93 3t-157 1q-105 0 -159.5 -1t-102.5 -3v45l101 21q21 4 35.5 14.5t17.5 22.5 q4 21 6 103.5t2 248.5q0 244 -2.5 313t-7.5 88q-3 12 -21.5 24t-37.5 15zM102 1057l349 358h190l-450 -358h-89z" />
<glyph unicode="&#xee;" horiz-adv-x="588" d="M-67 1057l360 360h70l294 -360h-104l-258 254l-274 -254h-88zM41 915v46q4 -1 12 -1q139 -4 203 -4q31 0 66 1t92 3q-8 -90 -11.5 -196t-3.5 -234q0 -48 1 -153t1 -162q0 -10 -1 -39.5t-1 -48.5q0 -30 12 -41.5t50 -19.5l100 -21v-45q-42 2 -93 3t-157 1 q-105 0 -159.5 -1t-102.5 -3v45l101 21q21 4 35.5 14.5t17.5 22.5q4 21 6 103.5t2 248.5q0 244 -2.5 313t-7.5 88q-3 12 -21.5 24t-37.5 15z" />
<glyph unicode="&#xef;" horiz-adv-x="588" d="M-51 1333q0 49 33 81t84 32q49 0 81.5 -32t32.5 -81t-32 -80.5t-82 -31.5q-51 0 -84 31.5t-33 80.5zM41 915v46q4 -1 12 -1q139 -4 203 -4q31 0 66 1t92 3q-8 -90 -11.5 -196t-3.5 -234q0 -48 1 -153t1 -162q0 -10 -1 -39.5t-1 -48.5q0 -30 12 -41.5t50 -19.5l100 -21 v-45q-42 2 -93 3t-157 1q-105 0 -159.5 -1t-102.5 -3v45l101 21q21 4 35.5 14.5t17.5 22.5q4 21 6 103.5t2 248.5q0 244 -2.5 313t-7.5 88q-3 12 -21.5 24t-37.5 15zM406 1333q0 50 31.5 81.5t82.5 31.5q50 0 83.5 -32.5t33.5 -80.5q0 -49 -32.5 -80.5t-84.5 -31.5 q-50 0 -82 31.5t-32 80.5z" />
<glyph unicode="&#xf0;" horiz-adv-x="1155" d="M70 459q0 218 140 363t351 145q63 0 121 -18t115 -54l8 4q-21 87 -58 167t-94 157l-293 -179l-26 48l282 174q-76 84 -168.5 130.5t-201.5 55.5v47q2 0 5 1q43 3 66 3q124 0 234 -43.5t205 -130.5l295 174l22 -51l-276 -158q129 -147 196.5 -331.5t67.5 -387.5 q0 -136 -40.5 -239t-127.5 -189q-81 -79 -192.5 -126.5t-217.5 -47.5q-101 0 -168 30t-125 99q-57 68 -88.5 162t-31.5 195zM285 514q0 -202 80 -322t213 -120q138 0 207 109t69 329q0 94 -8.5 158.5t-26.5 97.5q-34 65 -103 108.5t-141 43.5q-140 0 -215 -104.5t-75 -299.5 z" />
<glyph unicode="&#xf1;" horiz-adv-x="1266" d="M43 915v46q4 -1 11 -1q120 -4 179 -4q33 0 72 1t111 3q-3 -28 -4.5 -58.5t-1.5 -61.5v-41q93 86 190.5 127t208.5 41q145 0 211.5 -65.5t66.5 -209.5q0 -2 -4 -120t-4 -234v-203q0 -36 12 -50.5t47 -20.5l107 -19l2 -45q-43 2 -94.5 3t-157.5 1t-160 -1t-102 -3v45l96 18 q25 5 40 14.5t18 21.5q3 13 5.5 116.5t2.5 259.5q0 216 -51.5 306.5t-169.5 90.5q-51 0 -106.5 -23t-102.5 -65q-37 -33 -51.5 -69.5t-14.5 -116.5v-244q0 -39 -1 -95t-1 -73q0 -70 12.5 -92.5t48.5 -29.5l101 -19v-45q-42 2 -93 3t-155 1q-105 0 -159.5 -1t-102.5 -3v45 l103 21q39 8 52 36t13 115q0 18 -1 74t-1 94q0 58 -2 176.5t-2 179.5v47q0 57 -14.5 76.5t-53.5 28.5zM225 1165q63 119 113.5 178.5t89.5 59.5q20 0 64.5 -10.5t101.5 -28.5q39 -12 108 -35q162 -53 201 -53q35 0 67 27t66 86l39 -15l-7 -13q-128 -228 -191 -228 q-30 0 -147 38q-63 21 -101 33q-82 27 -138 40t-83 13q-48 0 -82.5 -24.5t-61.5 -77.5z" />
<glyph unicode="&#xf2;" horiz-adv-x="1155" d="M63 451q0 235 155 375.5t415 140.5q218 0 334 -114t116 -329q0 -243 -162 -397t-419 -154q-205 0 -322 127.5t-117 350.5zM242 1415h193l354 -358h-96zM270 555q0 -239 86.5 -382.5t227.5 -143.5q135 0 215 110.5t80 300.5q0 215 -85 345t-223 130q-136 0 -218.5 -98.5 t-82.5 -261.5z" />
<glyph unicode="&#xf3;" horiz-adv-x="1155" d="M63 451q0 235 155 375.5t415 140.5q218 0 334 -114t116 -329q0 -243 -162 -397t-419 -154q-205 0 -322 127.5t-117 350.5zM270 555q0 -239 86.5 -382.5t227.5 -143.5q135 0 215 110.5t80 300.5q0 215 -85 345t-223 130q-136 0 -218.5 -98.5t-82.5 -261.5zM385 1057 l349 358h190l-450 -358h-89z" />
<glyph unicode="&#xf4;" horiz-adv-x="1155" d="M63 451q0 235 155 375.5t415 140.5q218 0 334 -114t116 -329q0 -243 -162 -397t-419 -154q-205 0 -322 127.5t-117 350.5zM216 1057l360 360h70l294 -360h-104l-258 254l-274 -254h-88zM270 555q0 -239 86.5 -382.5t227.5 -143.5q135 0 215 110.5t80 300.5q0 215 -85 345 t-223 130q-136 0 -218.5 -98.5t-82.5 -261.5z" />
<glyph unicode="&#xf5;" horiz-adv-x="1155" d="M63 451q0 235 155 375.5t415 140.5q218 0 334 -114t116 -329q0 -243 -162 -397t-419 -154q-205 0 -322 127.5t-117 350.5zM170 1165q63 119 113.5 178.5t89.5 59.5q20 0 64.5 -10.5t101.5 -28.5q39 -12 108 -35q162 -53 201 -53q35 0 67 27t66 86l39 -15l-7 -13 q-128 -228 -191 -228q-30 0 -147 38q-63 21 -101 33q-82 27 -138 40t-83 13q-48 0 -82.5 -24.5t-61.5 -77.5zM270 555q0 -239 86.5 -382.5t227.5 -143.5q135 0 215 110.5t80 300.5q0 215 -85 345t-223 130q-136 0 -218.5 -98.5t-82.5 -261.5z" />
<glyph unicode="&#xf6;" horiz-adv-x="1155" d="M63 451q0 235 155 375.5t415 140.5q218 0 334 -114t116 -329q0 -243 -162 -397t-419 -154q-205 0 -322 127.5t-117 350.5zM232 1333q0 49 33 81t84 32q49 0 81.5 -32t32.5 -81t-32 -80.5t-82 -31.5q-51 0 -84 31.5t-33 80.5zM270 555q0 -239 86.5 -382.5t227.5 -143.5 q135 0 215 110.5t80 300.5q0 215 -85 345t-223 130q-136 0 -218.5 -98.5t-82.5 -261.5zM689 1333q0 50 31.5 81.5t82.5 31.5q50 0 83.5 -32.5t33.5 -80.5q0 -49 -32.5 -80.5t-84.5 -31.5q-50 0 -82 31.5t-32 80.5z" />
<glyph unicode="&#xf7;" horiz-adv-x="1706" d="M254 541v139h1198v-139h-1198zM729 242q0 51 37 88t88 37t88 -37t37 -88q0 -52 -36.5 -88.5t-88.5 -36.5q-53 0 -89 36t-36 89zM729 979q0 52 37 89.5t88 37.5t88 -37.5t37 -89.5q0 -51 -36.5 -88t-88.5 -37t-88.5 36.5t-36.5 88.5z" />
<glyph unicode="&#xf8;" horiz-adv-x="1155" d="M61 457q0 234 157 373t423 139q42 0 84.5 -6.5t85.5 -18.5l82 137l45 -20l-78 -137q107 -47 165 -152.5t58 -251.5q0 -240 -159.5 -393.5t-409.5 -153.5q-51 0 -100 8.5t-99 24.5l-100 -166l-47 23l100 164q-100 66 -153.5 176.5t-53.5 253.5zM270 551q0 -95 21.5 -187.5 t64.5 -185.5l394 662q-35 37 -79 56t-98 19q-139 0 -221 -98t-82 -266zM387 125q45 -49 92.5 -72.5t102.5 -23.5q136 0 215.5 109t79.5 300q0 107 -23 195.5t-70 159.5z" />
<glyph unicode="&#xf9;" horiz-adv-x="1309" d="M33 915v46q2 -1 6 -1q121 -4 182 -4q33 0 72.5 1l118.5 3q-9 -66 -13 -160.5t-4 -269.5q0 -185 14.5 -253.5t49.5 -114.5q34 -46 88 -70t121 -24q39 0 80 12.5t88 40.5q43 25 58 51.5t15 95.5v27v289q0 37 1 89.5t1 69.5q0 85 -13 112t-52 36l-105 24v46q7 -1 19 -1 q128 -4 184 -4q36 0 75 1t97 3q-8 -59 -12 -165.5t-4 -253.5v-346q0 -71 13 -94t50 -31l103 -23v-47q-34 2 -73 3t-118 1q-76 0 -113.5 -1t-68.5 -3q1 13 1.5 29.5t0.5 52.5q-108 -49 -203.5 -72.5t-181.5 -23.5q-96 0 -163.5 31.5t-100.5 91.5q-24 42 -33.5 106t-9.5 197 v139v254q0 51 -12 66t-48 22zM319 1415h193l354 -358h-96z" />
<glyph unicode="&#xfa;" horiz-adv-x="1309" d="M33 915v46q2 -1 6 -1q121 -4 182 -4q33 0 72.5 1l118.5 3q-9 -66 -13 -160.5t-4 -269.5q0 -185 14.5 -253.5t49.5 -114.5q34 -46 88 -70t121 -24q39 0 80 12.5t88 40.5q43 25 58 51.5t15 95.5v27v289q0 37 1 89.5t1 69.5q0 85 -13 112t-52 36l-105 24v46q7 -1 19 -1 q128 -4 184 -4q36 0 75 1t97 3q-8 -59 -12 -165.5t-4 -253.5v-346q0 -71 13 -94t50 -31l103 -23v-47q-34 2 -73 3t-118 1q-76 0 -113.5 -1t-68.5 -3q1 13 1.5 29.5t0.5 52.5q-108 -49 -203.5 -72.5t-181.5 -23.5q-96 0 -163.5 31.5t-100.5 91.5q-24 42 -33.5 106t-9.5 197 v139v254q0 51 -12 66t-48 22zM462 1057l349 358h190l-450 -358h-89z" />
<glyph unicode="&#xfb;" horiz-adv-x="1309" d="M33 915v46q2 -1 6 -1q121 -4 182 -4q33 0 72.5 1l118.5 3q-9 -66 -13 -160.5t-4 -269.5q0 -185 14.5 -253.5t49.5 -114.5q34 -46 88 -70t121 -24q39 0 80 12.5t88 40.5q43 25 58 51.5t15 95.5v27v289q0 37 1 89.5t1 69.5q0 85 -13 112t-52 36l-105 24v46q7 -1 19 -1 q128 -4 184 -4q36 0 75 1t97 3q-8 -59 -12 -165.5t-4 -253.5v-346q0 -71 13 -94t50 -31l103 -23v-47q-34 2 -73 3t-118 1q-76 0 -113.5 -1t-68.5 -3q1 13 1.5 29.5t0.5 52.5q-108 -49 -203.5 -72.5t-181.5 -23.5q-96 0 -163.5 31.5t-100.5 91.5q-24 42 -33.5 106t-9.5 197 v139v254q0 51 -12 66t-48 22zM293 1057l360 360h70l294 -360h-104l-258 254l-274 -254h-88z" />
<glyph unicode="&#xfc;" horiz-adv-x="1309" d="M33 915v46q2 -1 6 -1q121 -4 182 -4q33 0 72.5 1l118.5 3q-9 -66 -13 -160.5t-4 -269.5q0 -185 14.5 -253.5t49.5 -114.5q34 -46 88 -70t121 -24q39 0 80 12.5t88 40.5q43 25 58 51.5t15 95.5v27v289q0 37 1 89.5t1 69.5q0 85 -13 112t-52 36l-105 24v46q7 -1 19 -1 q128 -4 184 -4q36 0 75 1t97 3q-8 -59 -12 -165.5t-4 -253.5v-346q0 -71 13 -94t50 -31l103 -23v-47q-34 2 -73 3t-118 1q-76 0 -113.5 -1t-68.5 -3q1 13 1.5 29.5t0.5 52.5q-108 -49 -203.5 -72.5t-181.5 -23.5q-96 0 -163.5 31.5t-100.5 91.5q-24 42 -33.5 106t-9.5 197 v139v254q0 51 -12 66t-48 22zM309 1333q0 49 33 81t84 32q49 0 81.5 -32t32.5 -81t-32 -80.5t-82 -31.5q-51 0 -84 31.5t-33 80.5zM766 1333q0 50 31.5 81.5t82.5 31.5q50 0 83.5 -32.5t33.5 -80.5q0 -49 -32.5 -80.5t-84.5 -31.5q-50 0 -82 31.5t-32 80.5z" />
<glyph unicode="&#xfd;" horiz-adv-x="1249" d="M23 907v49q49 -3 100 -4.5t102 -1.5q87 0 267 8h12v-45l-142 -18q104 -383 171.5 -566.5t105.5 -183.5q18 0 32.5 16t30.5 56l207 475q50 114 63 147.5t13 43.5t-4.5 15t-19.5 7l-99 8v43h88q77 0 252 4q17 0 25 1v-46l-115 -18q0 1 -0.5 1.5t-3.5 0.5q-17 0 -176 -335 q-105 -222 -174 -365q-45 -93 -123 -251q-182 -368 -187 -448h-313l2 35q126 12 247 146t236 388q-43 -10 -81 -26t-72 -39q-81 181 -214 590q-50 156 -77 235q-15 45 -39 57.5t-114 20.5zM432 1057l349 358h190l-450 -358h-89z" />
<glyph unicode="&#xfe;" horiz-adv-x="1194" d="M2 1397v41q83 0 302 6q54 1 83 2q-4 -138 -6 -292t-2 -333q85 75 190 113.5t224 38.5q141 0 222 -99.5t81 -275.5q0 -256 -149 -413.5t-388 -157.5q-50 0 -91 8.5t-75 25.5q0 -96 3.5 -205t11.5 -245l149 -23v-49h-127q-97 0 -194 -1.5t-193 -3.5v48l143 27q6 84 8.5 181 t2.5 226q0 443 -9.5 809.5t-19.5 477.5q-4 53 -27.5 68.5t-138.5 25.5zM387 215q0 -67 44 -99t136 -32q151 0 236.5 113.5t85.5 316.5q0 174 -66.5 267t-189.5 93q-105 0 -175.5 -53.5t-70.5 -136.5v-469z" />
<glyph unicode="&#xff;" horiz-adv-x="1249" d="M23 907v49q49 -3 100 -4.5t102 -1.5q87 0 267 8h12v-45l-142 -18q104 -383 171.5 -566.5t105.5 -183.5q18 0 32.5 16t30.5 56l207 475q50 114 63 147.5t13 43.5t-4.5 15t-19.5 7l-99 8v43h88q77 0 252 4q17 0 25 1v-46l-115 -18q0 1 -0.5 1.5t-3.5 0.5q-17 0 -176 -335 q-105 -222 -174 -365q-45 -93 -123 -251q-182 -368 -187 -448h-313l2 35q126 12 247 146t236 388q-43 -10 -81 -26t-72 -39q-81 181 -214 590q-50 156 -77 235q-15 45 -39 57.5t-114 20.5zM279 1333q0 49 33 81t84 32q49 0 81.5 -32t32.5 -81t-32 -80.5t-82 -31.5 q-51 0 -84 31.5t-33 80.5zM736 1333q0 50 31.5 81.5t82.5 31.5q50 0 83.5 -32.5t33.5 -80.5q0 -49 -32.5 -80.5t-84.5 -31.5q-50 0 -82 31.5t-32 80.5z" />
<glyph unicode="&#x152;" horiz-adv-x="2140" d="M72 627q0 175 49 303.5t149 218.5q110 99 253 150t311 51q152 0 255.5 -49.5t172.5 -153.5q-2 59 -6 102.5t-10 79.5q37 -1 90.5 -1.5t189.5 -0.5q59 0 172.5 1.5t283.5 4.5q0 -67 2 -138t4 -144h-49l-20 90q-16 70 -91.5 96.5t-307.5 26.5h-82q-6 -109 -9.5 -218 t-3.5 -217v-88h62q179 0 240.5 21t68.5 74l10 71h41q-3 -44 -4.5 -91t-1.5 -95t1.5 -97.5t4.5 -101.5h-41l-18 80q-18 76 -324 83q-25 1 -39 1q0 -26 -1 -76t-1 -73q0 -116 4 -231.5t11 -227.5h71q255 0 363.5 31.5t134.5 107.5l45 135l47 -4q-6 -44 -15 -130.5t-22 -221.5 q-203 2 -410.5 6t-217.5 4q-42 0 -90 -1.5t-102 -4.5q12 57 20.5 121.5t11.5 136.5q-113 -140 -270 -208t-367 -68q-273 0 -419 166.5t-146 478.5zM276 729q0 -311 135 -497.5t355 -186.5q108 0 202 48.5t158 137.5q54 75 78.5 170t24.5 238q0 301 -131 473t-359 172 q-213 0 -338 -149t-125 -406z" />
<glyph unicode="&#x153;" horiz-adv-x="1720" d="M66 461q0 234 153 371t414 137q125 0 214 -37.5t142 -112.5q70 73 162.5 111.5t198.5 38.5q141 0 223.5 -75.5t91.5 -211.5l-586 -178q12 -208 102.5 -325.5t237.5 -117.5q57 0 111 22.5t112 70.5l5 -50q-83 -64 -178.5 -97.5t-196.5 -33.5q-115 0 -196 46t-130 139 q-82 -90 -196 -137.5t-248 -47.5q-211 0 -323.5 126.5t-112.5 361.5zM270 555q0 -239 87 -381.5t229 -142.5q134 0 213.5 110t79.5 299q0 215 -85.5 345t-224.5 130q-136 0 -217.5 -97.5t-81.5 -262.5zM1067 641q0 -37 8 -55.5t25 -18.5q5 0 7 0.5t5 1.5l293 93 q24 7 35.5 19t11.5 30q0 74 -55 132t-129 58q-91 0 -146 -70.5t-55 -189.5z" />
<glyph unicode="&#x178;" horiz-adv-x="1341" d="M-18 1280v47q100 -2 156 -3t104 -1q90 0 276 4h6v-47l-137 -23q76 -167 158 -313t174 -276q125 179 221.5 330.5t153.5 258.5l-133 23v47q72 -2 113.5 -3t76.5 -1q64 0 200 4h7v-47l-123 -23q-83 -85 -191.5 -235t-273.5 -410q-3 -67 -4.5 -123.5t-1.5 -103.5 q0 -62 2.5 -139t7.5 -176l174 -23v-47q-49 2 -107.5 3t-172.5 1q-116 0 -173 -1t-106 -3v47l174 23q4 49 6 104.5t2 120.5q0 71 -2 134.5t-6 121.5l-207 352q-16 28 -46 80q-124 210 -175 274zM326 1718q0 49 33 81t84 32q49 0 81.5 -32t32.5 -81t-32 -80.5t-82 -31.5 q-51 0 -84 31.5t-33 80.5zM783 1718q0 50 31.5 81.5t82.5 31.5q50 0 83.5 -32.5t33.5 -80.5q0 -49 -32.5 -80.5t-84.5 -31.5q-50 0 -82 31.5t-32 80.5z" />
<glyph unicode="&#x2c6;" d="M150 1057l360 360h70l294 -360h-104l-258 254l-274 -254h-88z" />
<glyph unicode="&#x2dc;" d="M104 1165q63 119 113.5 178.5t89.5 59.5q20 0 64.5 -10.5t101.5 -28.5q39 -12 108 -35q162 -53 201 -53q35 0 67 27t66 86l39 -15l-7 -13q-128 -228 -191 -228q-30 0 -147 38q-63 21 -101 33q-82 27 -138 40t-83 13q-48 0 -82.5 -24.5t-61.5 -77.5z" />
<glyph unicode="&#x2000;" horiz-adv-x="925" />
<glyph unicode="&#x2001;" horiz-adv-x="1851" />
<glyph unicode="&#x2002;" horiz-adv-x="925" />
<glyph unicode="&#x2003;" horiz-adv-x="1851" />
<glyph unicode="&#x2004;" horiz-adv-x="617" />
<glyph unicode="&#x2005;" horiz-adv-x="462" />
<glyph unicode="&#x2006;" horiz-adv-x="308" />
<glyph unicode="&#x2007;" horiz-adv-x="308" />
<glyph unicode="&#x2008;" horiz-adv-x="231" />
<glyph unicode="&#x2009;" horiz-adv-x="370" />
<glyph unicode="&#x200a;" horiz-adv-x="102" />
<glyph unicode="&#x2010;" horiz-adv-x="868" d="M66 412v116q64 -1 138 -1.5t222 -0.5q149 0 223 0.5t137 1.5v-116h-720z" />
<glyph unicode="&#x2011;" horiz-adv-x="868" d="M66 412v116q64 -1 138 -1.5t222 -0.5q149 0 223 0.5t137 1.5v-116h-720z" />
<glyph unicode="&#x2012;" horiz-adv-x="868" d="M66 412v116q64 -1 138 -1.5t222 -0.5q149 0 223 0.5t137 1.5v-116h-720z" />
<glyph unicode="&#x2013;" d="M0 414v110q90 -1 195 -1.5t317 -0.5q211 0 316.5 0.5t195.5 1.5v-110h-1024z" />
<glyph unicode="&#x2014;" horiz-adv-x="2048" d="M0 414v110q181 -1 391.5 -1.5t632.5 -0.5q421 0 632 0.5t392 1.5v-110q-180 2 -391.5 3t-632.5 1q-422 0 -632.5 -1t-391.5 -3z" />
<glyph unicode="&#x2018;" horiz-adv-x="612" d="M162 825q23 138 91 271.5t177 255.5l72 14q-65 -92 -100.5 -207.5t-43.5 -257.5q-37 -11 -83 -29t-113 -47z" />
<glyph unicode="&#x2019;" horiz-adv-x="612" d="M113 825q64 94 99.5 209.5t43.5 255.5q51 17 100.5 36t98.5 40q-23 -138 -91.5 -270.5t-179.5 -255.5z" />
<glyph unicode="&#x201a;" horiz-adv-x="612" d="M92 -354q64 93 100 208.5t44 256.5q46 15 95.5 34t100.5 41q-22 -134 -89.5 -266.5t-178.5 -259.5z" />
<glyph unicode="&#x201c;" horiz-adv-x="946" d="M143 825q24 140 92.5 273t178.5 254l69 14q-64 -93 -99.5 -209t-43.5 -256q-47 -15 -96.5 -34t-100.5 -42zM510 825q23 141 91 274t177 253l72 14q-65 -95 -101.5 -211t-44.5 -254q-43 -14 -91.5 -33t-102.5 -43z" />
<glyph unicode="&#x201d;" horiz-adv-x="946" d="M92 825q65 96 100.5 210.5t43.5 252.5q37 13 84.5 31.5t111.5 46.5q-23 -140 -90.5 -272.5t-177.5 -253.5zM457 825q65 96 101 209.5t44 253.5q34 11 77.5 28.5t117.5 49.5q-24 -138 -91.5 -270.5t-177.5 -255.5z" />
<glyph unicode="&#x201e;" horiz-adv-x="946" d="M76 -354q65 96 101.5 212t43.5 253q53 17 101 36t94 39q-24 -140 -91.5 -272t-177.5 -254zM442 -354q65 96 100 210t44 255q46 15 95.5 34t100.5 41q-21 -133 -89 -265.5t-181 -260.5z" />
<glyph unicode="&#x2022;" horiz-adv-x="1208" d="M307 762q0 123 87 209t210 86q122 0 208.5 -86.5t86.5 -208.5t-87.5 -209.5t-209.5 -87.5q-123 0 -209 87t-86 210z" />
<glyph unicode="&#x2026;" horiz-adv-x="2048" d="M225 104q0 50 32.5 81.5t84.5 31.5q50 0 83.5 -32t33.5 -81q0 -50 -32.5 -82t-84.5 -32t-84.5 32t-32.5 82zM907 104q0 50 32.5 81.5t84.5 31.5q50 0 83.5 -32t33.5 -81q0 -50 -32.5 -82t-84.5 -32t-84.5 32t-32.5 82zM1591 104q0 50 32.5 81.5t84.5 31.5q50 0 83.5 -32 t33.5 -81q0 -50 -32.5 -82t-84.5 -32t-84.5 32t-32.5 82z" />
<glyph unicode="&#x202f;" horiz-adv-x="370" />
<glyph unicode="&#x2039;" horiz-adv-x="657" d="M131 467q84 108 239 314l40 53l131 36q-65 -86 -130 -178t-130 -192l84 -166q27 -53 61 -109t76 -116l-137 -58z" />
<glyph unicode="&#x203a;" horiz-adv-x="657" d="M109 51q65 88 131 181t131 190l-84 166q-23 46 -57 101.5t-80 123.5l137 57l231 -415q-79 -111 -150.5 -204t-127.5 -161z" />
<glyph unicode="&#x205f;" horiz-adv-x="462" />
<glyph unicode="&#x2122;" horiz-adv-x="1683" d="M240 1260l10 182h444l11 -182h-27q-8 78 -40.5 114.5t-94.5 36.5h-17v-424q0 -24 10.5 -37.5t30.5 -15.5l33 -2v-29h-254v29l31 2q21 2 32 15.5t11 37.5v424h-17q-64 0 -96.5 -36t-40.5 -115h-26zM780 903v29l34 2q20 2 31 15.5t11 37.5v371q0 24 -11 37.5t-31 15.5 l-34 4v27h191l137 -391l143 391h181v-25l-30 -2q-21 -2 -31.5 -15t-10.5 -38v-375q0 -25 10.5 -38t31.5 -15l30 -2v-29h-240v29l31 2q21 2 32 15.5t11 37.5v387l-172 -473h-21l-172 475v-389q0 -24 11 -37.5t32 -15.5l33 -2v-29h-197z" />
<glyph unicode="&#x25fc;" horiz-adv-x="960" d="M0 0v960h960v-960h-960z" />
</font>
</defs>
</svg>
